<?xml version="1.0" encoding="utf-8"?>
<!-- Generator: Adobe Illustrator 16.0.0, SVG Export Plug-In . SVG Version: 6.00 Build 0)  -->
<!DOCTYPE svg PUBLIC "-//W3C//DTD SVG 1.1//EN" "http://www.w3.org/Graphics/SVG/1.1/DTD/svg11.dtd">
<svg version="1.1" xmlns="http://www.w3.org/2000/svg" xmlns:xlink="http://www.w3.org/1999/xlink" x="0px" y="0px" width="1000px"
	 height="1000px" viewBox="0 0 1000 1000" enable-background="new 0 0 1000 1000" xml:space="preserve">
<g id="Layer_1" display="none">
	<g display="inline">
		<g>
			<path fill="#DF5E26" d="M560.529,682.071c0,6.514,0,13.026,0,19.837c-40.571,0-80.53,0-121.46,0c0-6.563,0-13.2,0-19.837
				c0.179-0.282,0.358-0.565,0.537-0.847c2.115-1.833,4.731-1.586,7.215-1.593c35.318-0.089,70.636-0.089,105.955,0
				c2.483,0.006,5.101-0.241,7.216,1.592C560.171,681.506,560.35,681.789,560.529,682.071z"/>
			<path fill="#DF5E26" d="M681.846,439.294c6.514,0,13.027,0,19.837,0c0,40.571,0,80.53,0,121.459c-6.563,0-13.2,0-19.837,0
				c-0.282-0.18-0.564-0.358-0.848-0.537c-1.832-2.115-1.585-4.731-1.592-7.215c-0.088-35.318-0.088-70.637,0-105.955
				c0.006-2.483-0.24-5.1,1.592-7.215C681.281,439.652,681.563,439.474,681.846,439.294z"/>
			<path fill="#F89638" d="M439.059,317.967c0-6.521,0-13.042,0-19.843c40.617,0,80.618,0,121.635,0c0,6.68,0,13.333,0,19.987
				c-0.201,0.267-0.402,0.534-0.604,0.8c-2.172,1.695-4.768,1.507-7.265,1.513c-35.338,0.076-70.676,0.083-106.015-0.007
				c-2.485-0.006-5.103,0.237-7.217-1.6C439.415,318.534,439.237,318.25,439.059,317.967z"/>
			<path fill="#DF5E26" d="M317.752,560.754c-6.499,0-12.998,0-19.974,0c0-20.622,0-40.678,0-60.733
				c6.371-4.254,13.093-2.491,19.792-1.159c0.593,0.329,1.058,0.788,1.398,1.374c1.063,1.998,1.213,4.176,1.226,6.371
				c0.09,15.638,0.095,31.274-0.012,46.912c-0.016,2.323,0.147,4.759-1.587,6.707C318.314,560.402,318.033,560.578,317.752,560.754z
				"/>
			<path fill="#F89638" d="M317.819,500.039c-6.681-0.006-13.361-0.012-20.041-0.018c0-19.941,0-39.881,0-60.737
				c6.711,0,13.337,0,19.964,0c0.284,0.18,0.567,0.359,0.852,0.539c1.617,1.781,1.556,4.026,1.574,6.184
				c0.136,15.756,0.146,31.513-0.01,47.269C320.133,495.719,320.435,498.425,317.819,500.039z"/>
			<path fill="#F89638" d="M398.621,338.186c0-6.487,0-12.975,0-20.219c13.817,0,27.127,0,40.438,0l0.215,0.218
				c4.023,6.228,2.274,12.896,1.3,19.432c-0.258,1.729-2.13,2.598-3.915,2.685c-11.758,0.573-23.519,0.739-35.273-0.094
				c-0.865-0.062-1.53-0.652-2.204-1.155C398.996,338.764,398.808,338.475,398.621,338.186z"/>
			<path fill="#DF5E26" d="M560.693,318.111c13.104,0,26.207,0,40.273,0c0,6.815,0,13.45,0,20.085
				c-0.172,0.278-0.342,0.556-0.514,0.834c-4.305,2.761-9.117,1.266-13.707,1.606c-2.17,0.161-4.342-0.274-6.524-0.246
				c-5.343,0.376-10.683,0.381-16.028,0.095c-3.828-0.205-6.01-2.147-5.898-5.969c0.16-5.517-1.98-11.361,2.051-16.401
				L560.693,318.111z"/>
			<path fill="#F89638" d="M317.742,439.284c0-13.189,0-26.379,0-40.438c6.998,0,13.608,0,20.219,0
				c0.289,0.188,0.577,0.375,0.866,0.562c1.368,1.482,1.482,3.358,1.519,5.205c0.196,9.92,0.293,19.845-0.037,29.762
				c-0.191,5.762-1.537,7.229-7.341,7.207c-5.042-0.02-10.467,1.832-15.007-2.083L317.742,439.284z"/>
			<path fill="#DF5E26" d="M661.627,398.856c6.485,0,12.971,0,20.219,0c0,13.826,0,27.132,0,40.438l-0.154,0.151
				c-3.396,2.419-16.738,3.265-19.895,1.241c-1.356-0.87-2.195-2.147-2.273-3.746c-0.578-11.771-0.733-23.542,0.086-35.31
				c0.061-0.866,0.649-1.533,1.152-2.208C661.05,399.233,661.338,399.045,661.627,398.856z"/>
			<path fill="#DF5E26" d="M600.967,661.852c0,6.486,0,12.972,0,20.22c-13.826,0-27.133,0-40.438,0l-0.151-0.154
				c-2.419-3.396-3.265-16.739-1.241-19.896c0.869-1.355,2.146-2.194,3.746-2.273c11.771-0.578,23.543-0.732,35.311,0.087
				c0.865,0.061,1.533,0.649,2.208,1.151C600.59,661.275,600.778,661.564,600.967,661.852z"/>
			<path fill="#DF5E26" d="M439.069,682.071c-13.186,0-26.371,0-40.438,0c0-7.003,0-13.611,0-20.22
				c0.188-0.287,0.377-0.576,0.566-0.864c1.801-1.603,4.056-1.519,6.222-1.551c9.258-0.136,18.52-0.214,27.775,0.024
				c6.937,0.178,8.264,1.396,8.212,8.47c-0.034,4.708,1.642,9.823-2.187,13.985L439.069,682.071z"/>
			<path fill="#DF5E26" d="M681.846,560.754c0,13.186,0,26.371,0,40.438c-7.002,0-13.61,0-20.219,0
				c-0.288-0.188-0.576-0.377-0.865-0.565c-1.602-1.802-1.519-4.056-1.551-6.222c-0.135-9.258-0.213-18.52,0.025-27.775
				c0.178-6.938,1.395-8.264,8.469-8.213c4.709,0.034,9.824-1.642,13.986,2.188L681.846,560.754z"/>
			<path fill="#DF5E26" d="M337.971,601.191c-6.485,0-12.969,0-20.219,0c0-13.826,0-27.131,0-40.438l0.155-0.15
				c6.393-4.1,13.115-2.425,19.818-1.135c0.597,0.316,1.07,0.762,1.424,1.336c0.905,1.674,1.196,3.492,1.223,5.362
				c0.139,9.767,0.17,19.535-0.023,29.302c-0.036,1.848-0.147,3.729-1.539,5.201C338.53,600.844,338.25,601.018,337.971,601.191z"/>
			<path fill="#DF5E26" d="M358.19,621.41c-6.465,0-12.931,0-20.219,0c0-7.041,0-13.63,0-20.219l0.154-0.15
				c3.457-2.449,16.66-3.273,19.881-1.238c1.035,0.654,1.96,1.554,2.062,2.739c0.529,6.138,1.797,12.336-1.008,18.294
				C358.771,621.027,358.48,621.219,358.19,621.41z"/>
			<path fill="#DF5E26" d="M661.627,601.191c-0.057,6.157-0.109,12.314-0.182,18.472c-0.004,0.31-0.186,0.616-0.55,1.747
				c-6.312,0-12.899,0-19.487,0c-0.29-0.191-0.58-0.383-0.871-0.574c-2.805-5.958-1.537-12.156-1.008-18.294
				c0.102-1.186,1.027-2.085,2.063-2.739c3.223-2.035,16.424-1.211,19.881,1.238L661.627,601.191z"/>
			<path fill="#DF5E26" d="M378.409,641.629c-6.465,0-12.931,0-20.219,0c0-7.041,0-13.63,0-20.219l0.154-0.15
				c3.458-2.449,16.66-3.273,19.881-1.238c1.035,0.654,1.96,1.554,2.062,2.739c0.529,6.138,1.798,12.336-1.008,18.295
				C378.99,641.247,378.699,641.438,378.409,641.629z"/>
			<path fill="#DF5E26" d="M641.408,621.41c-0.057,6.158-0.109,12.314-0.182,18.472c-0.004,0.31-0.186,0.616-0.55,1.747
				c-6.312,0-12.899,0-19.487,0c-0.29-0.191-0.58-0.383-0.871-0.574c-2.805-5.958-1.537-12.156-1.008-18.294
				c0.102-1.186,1.027-2.085,2.063-2.739c3.223-2.035,16.424-1.211,19.881,1.238L641.408,621.41z"/>
			<path fill="#DF5E26" d="M398.631,661.852c-6.466,0-12.932,0-20.223,0c0-7.044,0-13.633,0-20.223l0.155-0.15
				c6.348-4.115,13.09-2.34,19.763-1.258c0.783,0.127,1.587,0.931,1.714,1.715c1.083,6.672,2.857,13.414-1.258,19.762
				L398.631,661.852z"/>
			<path fill="#DF5E26" d="M621.189,641.629c0,6.467,0,12.933,0,20.223c-7.045,0-13.634,0-20.223,0l-0.15-0.154
				c-4.116-6.348-2.342-13.09-1.26-19.763c0.128-0.783,0.932-1.587,1.715-1.714c6.674-1.082,13.416-2.857,19.764,1.258
				L621.189,641.629z"/>
			<path fill="#DF5E26" d="M641.408,378.638c6.465,0,12.931,0,20.219,0c0,7.042,0,13.63,0,20.219l-0.154,0.151
				c-3.457,2.45-16.659,3.273-19.881,1.238c-1.035-0.654-1.961-1.554-2.063-2.739c-0.529-6.137-1.798-12.336,1.008-18.294
				C640.827,379.021,641.117,378.829,641.408,378.638z"/>
			<path fill="#F89638" d="M337.961,398.846c0-6.469,0-12.938,0-20.219c7.039,0,13.629,0,20.219,0c0.291,0.19,0.581,0.38,0.872,0.57
				c2.824,6.126,1.664,12.451,0.851,18.733c-0.152,1.175-1.157,2.326-2.301,2.475c-6.548,0.85-13.202,2.674-19.422-1.344
				L337.961,398.846z"/>
			<path fill="#DF5E26" d="M621.189,358.419c6.465,0,12.93,0,20.219,0c0,7.042,0,13.63,0,20.219l-0.154,0.151
				c-3.457,2.45-16.66,3.273-19.881,1.238c-1.035-0.653-1.961-1.553-2.063-2.739c-0.529-6.138-1.798-12.336,1.008-18.294
				C620.608,358.802,620.898,358.61,621.189,358.419z"/>
			<path fill="#F89638" d="M358.18,378.627c0-6.469,0-12.938,0-20.219c7.039,0,13.629,0,20.219,0c0.29,0.19,0.581,0.38,0.871,0.57
				c2.824,6.126,1.664,12.451,0.851,18.733c-0.152,1.175-1.157,2.326-2.301,2.474c-6.547,0.85-13.202,2.675-19.422-1.344
				L358.18,378.627z"/>
			<path fill="#DF5E26" d="M600.967,338.196c6.466,0,12.932,0,20.223,0c0,7.045,0,13.634,0,20.223l-0.154,0.151
				c-6.38,4.104-13.098,2.409-19.791,1.153c-0.602-0.314-1.08-0.758-1.438-1.332c-1.575-6.776-2.989-13.545,1.011-20.04
				L600.967,338.196z"/>
			<path fill="#F89638" d="M378.399,358.408c0-6.47,0-12.94,0-20.222c7.039,0,13.63,0,20.222,0l0.215,0.219
				c4.012,6.346,2.309,13.061,1.204,19.713c-0.129,0.781-0.928,1.58-1.708,1.709c-6.653,1.104-13.367,2.809-19.714-1.204
				L378.399,358.408z"/>
			<path fill="#F89638" d="M600.903,358.477c6.71,0.031,13.421,0.062,20.132,0.092c0,6.45,0,12.9,0,20.219
				c7.318,0,13.769,0,20.219,0c0,6.45,0,12.9,0,20.219c7.318,0,13.77,0,20.219,0c0,13.171,0,26.342,0,40.438
				c7.287,0,13.754,0,20.219,0c0,40.386,0,80.771,0,121.158c-6.342,0-12.684,0-20.219,0c0,13.85,0,27.145,0,40.438
				c-6.45,0-12.9,0-20.219,0c0,7.319,0,13.77,0,20.219c-6.45,0-12.9,0-20.219,0c0,7.319,0,13.77,0,20.219c-6.451,0-12.9,0-20.219,0
				c0,7.319,0,13.77,0,20.22c-13.172-0.001-26.342-0.001-40.438-0.001c0,7.288,0,13.754,0,20.22c-40.386,0-80.772,0-121.158,0
				c0-6.343,0-12.685,0-20.219c-13.851,0-27.145,0-40.438-0.001c0-6.449,0-12.899,0-20.219c-7.319,0-13.769,0-20.219,0
				c0-6.449,0-12.9,0-20.219c-7.319,0-13.769,0-20.219,0c0-6.449,0-12.9,0-20.219c-7.319,0-13.769,0-20.219,0
				c-0.031-13.45-0.062-26.9-0.093-40.351c1.454-2.483,3.975-2.147,6.277-2.354c1.005-0.091,2.02-0.054,3.031-0.06
				c12.767-0.073,12.835-0.008,13.364,12.693c0.251,6.023,1.522,7.274,7.616,7.496c12.178,0.441,12.178,0.441,12.595,12.439
				c0.222,6.381,1.455,7.662,7.826,7.763c8.084,0.128,16.172-0.111,24.254,0.116c6.824,0.191,8.206,1.346,8.207,7.984
				c0.001,12.422,1.291,12.141,12.209,12.268c6.686,0.078,8.03,1.369,8.019,8.143c-0.021,12.124,1.132,11.985,12.375,11.972
				c31.5-0.038,62.998,0.003,94.498-0.023c8.82-0.007,9.557-0.759,9.746-9.411c0.021-1.01,0.025-2.021,0.082-3.03
				c0.344-6.135,1.51-7.421,7.553-7.646c8.08-0.301,16.17-0.042,24.254-0.136c7.297-0.085,8.354-1.172,8.537-8.589
				c0.275-11.174,0.465-11.366,11.387-11.61c7.693-0.172,8.65-1.131,8.834-8.844c0.017-0.674,0.017-1.348,0.037-2.021
				c0.249-8.216,1.148-9.093,9.563-9.325c1.683-0.046,3.368-0.022,5.05-0.14c3.396-0.239,5.202-2.057,5.451-5.444
				c0.112-1.514,0.109-3.03,0.11-4.546c0.007-38.91,0.017-77.821-0.006-116.731c-0.005-8.966-0.747-9.675-9.813-9.886
				c-1.347-0.031-2.692-0.116-4.038-0.159c-4.146-0.131-6.055-2.338-6.202-6.381c-0.303-8.252-0.073-16.505-0.16-24.758
				c-0.086-8.025-0.998-8.948-9.049-9.128c-0.842-0.019-1.685-0.02-2.525-0.053c-7.312-0.286-8.412-1.316-8.563-8.744
				c-0.185-9.094-0.152-18.192,0.003-27.286C598.598,362.808,598.25,360.085,600.903,358.477z"/>
			<path fill="#FECB55" d="M600.903,358.477c0,13.11,0,26.22,0,40.291c6.806,0,13.058,0,20.077,0c0,13.811,0,26.68,0,40.498
				c7.005,0,13.26,0,19.921,0c0,47.515,0,94.063,0,141.401c-6.371,0-12.499,0-19.587,0c0,7.005,0,13.259,0,20.282
				c-7.07,0-13.197,0-20.283,0c0,7.007,0,13.261,0,20.281c-13.811,0-26.681,0-40.323,0c0,6.882,0,13.008,0,19.727
				c-40.716,0-80.641,0-121.359,0c0-6.23,0-12.357,0-19.444c-7.007,0-13.26,0-20.282,0c0-7.071,0-13.198,0-20.28
				c-13.747,0-26.745,0-40.499,0c0-7.073,0-13.2,0-20.103c-6.885,0-13.02,0-20.103,0c0-7.003,0-13.264,0-20.438
				c-7.436,0-13.934,0-20.432-0.001c0,0,0.005,0.006,0.005,0.006c-2.613-2.07-2.342-5.044-2.363-7.864
				c-0.104-13.922,0.015-27.846-0.066-41.77c-0.043-7.381-1.131-8.379-8.422-8.648c-3.266-0.119-6.829,0.678-9.374-2.38l0.005,0.005
				c0.047-20.18,0.094-40.36,0.141-60.541c6.355,0,12.709,0,20.219,0c0-14.014,0-27.227,0-40.438c6.353,0,12.705,0,20.218,0
				c0-7.261,0-13.74,0-20.219c6.353,0,12.705,0,20.218,0c0-7.261,0-13.741,0-20.219c6.353,0,12.706,0,20.219,0
				c0-7.262,0-13.741,0-20.219c13.09,0,26.179,0,40.437,0c0-7.257,0-13.739,0-20.22c40.358-0.022,80.715-0.045,121.072-0.068
				c0,6.498,0,12.995,0,20.293c7.252,0,13.746,0,20.241,0c3.354,2.417,2.341,6.051,2.453,9.285c0.263,7.607,0.835,8.196,8.493,8.422
				c3.266,0.096,6.844-0.754,9.375,2.366L600.903,358.477z"/>
			<path fill="#F89638" d="M317.814,500.034c6.357,0,12.715,0,20.224,0c0,20.57,0,40.617,0,60.662
				c-6.71-0.03-13.421-0.061-20.132-0.092C317.875,540.414,317.845,520.224,317.814,500.034z"/>
			<path fill="#F89638" d="M600.908,358.482c-6.446,0-12.894,0-20.321,0c0-7.205,0-13.639,0-20.073
				c6.743-0.02,13.486-0.04,20.229-0.059C600.847,345.061,600.878,351.772,600.908,358.482z"/>
			<path fill="#FDE59B" d="M398.781,479.943c-6.494,0-12.989,0-20.184,0c0-7.069,0-13.199,0-20.208c-6.94,0-13.192,0-19.877,0
				c0-13.734,0-26.578,0-40.327c6.264,0,12.515,0,19.65,0c0-7.122,0-13.38,0-20.467c7.365,0,13.855,0,20.346,0
				c2.315,1.759,2.316,4.322,2.354,6.856c0.118,8.063-0.069,16.128,0.096,24.19c0.114,5.548,1.389,6.826,6.927,6.92
				c7.39,0.126,14.785,0.166,22.173-0.021c4.977-0.126,6.273-1.417,6.393-6.394c0.183-7.557,0.177-15.12,0.003-22.677
				c-0.114-4.937-1.447-6.269-6.397-6.401c-8.229-0.219-16.462,0.008-24.693-0.118c-2.534-0.039-5.097-0.039-6.856-2.354
				c0-6.364,0-12.728,0-19.981c6.712,0,12.963,0,20.095,0c0-7.114,0-13.365,0-20.032c20.581,0,40.266,0,60.908,0
				c0,6.874,0,13.366,0,19.859c3.956,6.439,2.458,13.155,1.02,19.862c-2.078,2.882-5.231,2.504-8.198,2.647
				c-1.836,0.089-3.677,0.047-5.515,0.096c-3.497,0.093-5.227,1.905-5.191,5.356c0.03,2.802-0.575,5.698,1.182,8.608
				c5.106,3.362,11.884-0.601,17.102,3.174c2.648,3.529,1.663,7.659,1.861,11.574c0.284,5.6,1.25,6.544,6.802,6.876
				c3.567,0.213,7.369-0.897,10.602,1.598c0.146,0.245,0.29,0.49,0.435,0.735c0,6.377,0,12.755,0,20.032c-6.746,0-13.006,0-20.327,0
				c0,7.362,0,13.851,0,20.34c-0.807,2.158-2.726,2.219-4.56,2.377c-2.502,0.216-5.015,0.146-7.522,0.196
				c-3.688,0.074-5.518,1.903-5.591,5.591c-0.05,2.508,0.02,5.021-0.196,7.523c-0.158,1.834-0.219,3.753-2.377,4.56
				c-6.726,0.076-13.452,0.152-20.177,0.229c-6.535,3.84-13.293,2.626-20.068,0.888c-3.092-2.705-2.353-6.413-2.446-9.84
				c-0.226-8.332-0.685-8.812-8.872-9.028C404.578,482.099,401.21,482.809,398.781,479.943z"/>
			<path fill="#F89638" d="M600.484,540.916c0,13.391,0,26.234,0,39.53c-13.249,0-26.094,0-39.486,0c0-13.145,0-26.108,0-39.53
				C574.114,540.916,586.959,540.916,600.484,540.916z"/>
			<path fill="#F89638" d="M459.243,499.933c0-6.482,0-12.964,0-20.246c7.283,0,13.764,0,20.246,0c6.368,0,12.735,0,19.703,0
				c0,13.595,0,26.552,0,40.036c-13.032,0-25.99,0-39.949,0C459.243,512.924,459.243,506.429,459.243,499.933z"/>
			<path fill="#F89638" d="M560.452,459.583c0-6.365,0-12.73,0-19.65c13.555,0,26.518,0,40.445,0c0,6.668,0,13.159,0,19.65
				c-0.179,0.273-0.356,0.546-0.535,0.82c-1.472,1.362-3.339,1.452-5.169,1.487c-9.679,0.181-19.358,0.181-29.037,0
				c-1.83-0.035-3.697-0.125-5.17-1.487C560.809,460.129,560.631,459.856,560.452,459.583z"/>
			<path fill="#DF5E26" d="M519.981,601.084c0,6.498,0,12.996,0,19.869c-13.507,0-26.492,0-40.365,0c0-6.621,0-13.245,0-19.869
				c0.181-0.27,0.361-0.54,0.542-0.811c1.476-1.352,3.339-1.426,5.163-1.459c9.651-0.178,19.304-0.178,28.955,0
				c1.823,0.033,3.688,0.107,5.163,1.458C519.621,600.543,519.801,600.814,519.981,601.084z"/>
			<path fill="#DF5E26" d="M600.857,499.99c0,6.499,0,12.998,0,19.869c-13.508,0-26.492,0-40.365,0c0-6.623,0-13.246,0-19.869
				c0.181-0.271,0.361-0.541,0.542-0.812c1.476-1.351,3.339-1.425,5.163-1.458c9.651-0.177,19.304-0.177,28.955,0
				c1.823,0.034,3.688,0.108,5.163,1.458C600.496,499.448,600.676,499.719,600.857,499.99z"/>
			<path fill="#F89638" d="M479.577,560.678c0-6.366,0-12.731,0-19.65c13.555,0,26.517,0,40.445,0c0,6.668,0,13.158,0,19.65
				c-0.178,0.272-0.356,0.546-0.535,0.818c-1.473,1.363-3.339,1.453-5.168,1.487c-9.68,0.182-19.359,0.181-29.038,0.001
				c-1.83-0.035-3.696-0.125-5.169-1.487C479.933,561.225,479.754,560.951,479.577,560.678z"/>
			<path fill="#DF5E26" d="M418.84,520.281c0,6.512,0,13.024,0,19.852c-6.882,0-13.17,0-20.052,0c0-6.827,0-13.34,0-19.852
				c0.16-0.271,0.319-0.543,0.479-0.814c6.365-2.492,12.73-2.494,19.095,0C418.521,519.738,418.681,520.01,418.84,520.281z"/>
			<path fill="#F89638" d="M398.788,520.281c-6.379,0-12.757,0-19.713,0c0-6.809,0-13.043,0-20.261c6.633,0,13.129,0,19.626,0
				c0.275,0.182,0.55,0.363,0.826,0.544c2.154,6.68,3.104,13.311-0.804,19.744L398.788,520.281z"/>
			<path fill="#F89638" d="M399.007,580.33c0-6.537,0-12.521,0-19.078c6.494,0,12.718,0,19.435,0c0,6.288,0,12.394,0,19.078
				C412.125,580.33,405.901,580.33,399.007,580.33z"/>
			<path fill="#F89638" d="M459.475,581.007c0-6.481,0-12.962,0-20.329c7.156,0,13.628,0,20.102,0l0.006,0.006
				c4.228,6.372,2.459,13.12,1.247,19.836c-0.309,0.604-0.75,1.086-1.321,1.45C472.738,583.577,465.978,584.961,459.475,581.007z"/>
			<path fill="#DF5E26" d="M621,479.916c0,6.379,0,12.759,0,20.075c-6.857,0-13.5,0-20.143,0l0.07,0.068
				c-4.176-6.384-2.572-13.139-1.279-19.876c0.313-0.606,0.756-1.089,1.331-1.453C607.766,477.212,614.561,475.565,621,479.916z"/>
			<path fill="#F89638" d="M520.021,560.678c6.348,0,12.695,0,20.102,0c0,7.117,0,13.723,0,20.329
				c-6.387,4.05-13.093,2.401-19.781,1.104c-0.6-0.319-1.074-0.769-1.428-1.348c-1.557-6.799-2.986-13.59,1.102-20.08
				L520.021,560.678z"/>
			<path fill="#DF5E26" d="M560.492,499.99c-6.516,0-13.033,0-20.144,0c0-7.071,0-13.573,0-20.075c1.25-1.923,3.2-2.379,5.28-2.374
				c4.85,0.015,9.771-0.857,14.488,1.045c0.603,0.319,1.08,0.769,1.437,1.349c1.569,6.817,3.003,13.626-1.132,20.123L560.492,499.99
				z"/>
			<path fill="#DF5E26" d="M459.475,581.007c6.623-0.015,13.247-0.028,19.87-0.042c0.421,0.251,0.931,0.385,1.203,0.837
				c2.477,4.116,1.884,15.511-1.002,19.352l0.071-0.069c-6.517,0-13.034,0-20.142,0C459.475,594.012,459.475,587.51,459.475,581.007
				z"/>
			<path fill="#F89638" d="M398.781,479.943c6.376,0,12.753,0,20.113,0c0,6.835,0,13.472,0,20.108
				c-0.183,0.272-0.365,0.545-0.548,0.818c-6.646,2.045-13.251,3.132-19.639-0.842l-0.007-0.007
				C398.728,493.328,398.754,486.636,398.781,479.943z"/>
			<path fill="#DF5E26" d="M520.254,580.965c6.623,0.014,13.246,0.027,19.869,0.042c0,6.38,0,12.761,0,20.077
				c-6.855,0-13.498,0-20.142,0l0.071,0.069C516.496,596.421,516.61,584.945,520.254,580.965z"/>
			<path fill="#F89638" d="M621,479.916c-6.689-0.03-13.381-0.06-20.072-0.09c-3.438-4.379-3.459-15.597-0.037-20.236
				c0,0,0.007-0.006,0.007-0.007c5.866,0.041,11.733,0.072,17.6,0.138c0.483,0.006,0.964,0.248,2.503,0.67
				C621,466.703,621,473.309,621,479.916z"/>
			<path fill="#F89638" d="M560.421,479.825c-6.69,0.03-13.382,0.061-20.072,0.09c0-6.483,0-12.966,0-20.333
				c7.157,0,13.63,0,20.104,0l0.007,0.007C563.881,464.229,563.859,475.446,560.421,479.825z"/>
			<path fill="#FFEEC0" d="M519.982,419.191c0,6.487,0,12.975,0,20.123c-7.187,0-13.676,0-20.166,0l0.019,0.042
				c-4.133-6.772-3.061-13.687-0.565-20.641C506.238,416.047,513.17,415.068,519.982,419.191z"/>
			<path fill="#F89638" d="M560.859,418.655c0-6.528,0-12.633,0-19.232c6.431,0,12.536,0,19.232,0c0,6.279,0,12.504,0,19.232
				C573.84,418.655,567.734,418.655,560.859,418.655z"/>
			<path fill="#F89638" d="M519.982,419.191c-6.744-0.019-13.489-0.037-20.234-0.056c-0.263-0.174-0.526-0.349-0.789-0.523
				c-2.377-6.399-2.437-12.794,0.042-19.183c0.267-0.168,0.534-0.336,0.801-0.504c6.338,0,12.677,0,20.18,0
				C519.982,406.012,519.982,412.602,519.982,419.191z"/>
			<path fill="#F89638" d="M479.609,398.957c0.036-6.723,0.072-13.446,0.109-20.169c6.307,0,12.614,0,20.085,0
				c0,7.003,0,13.571,0,20.138l-0.006,0.007c-6.389,3.974-12.994,2.887-19.64,0.842
				C479.974,399.502,479.791,399.229,479.609,398.957z"/>
			<path fill="#F89638" d="M520.409,358.01c0-6.566,0-12.671,0-19.256c6.469,0,12.573,0,19.258,0c0,6.315,0,12.54,0,19.256
				C533.375,358.01,527.271,358.01,520.409,358.01z"/>
			<path fill="#F89638" d="M418.895,500.051c6.724,0.037,13.447,0.073,20.171,0.11c0,6.317,0,12.635,0,20.12
				c-7.052,0-13.638,0-20.225,0l0.065,0.027c-3.398-4.73-3.367-15.735,0.058-20.324L418.895,500.051z"/>
			<path fill="#FFFFFF" d="M398.715,398.941c13.215,0,26.43,0,40.03,0c0,13.708,0,26.682,0,40.041c-13.222,0-26.076,0-40.029,0
				c0-13.37,0-26.706,0-40.042L398.715,398.941z"/>
			<path fill="#DF5E26" d="M499.749,419.136c0.028,6.74,0.057,13.48,0.086,20.221c-6.509,0-13.018,0-20.196,0
				c0-6.952,0-13.582,0-20.211c0.179-0.275,0.358-0.551,0.537-0.827c6.653-2.05,13.264-3.196,19.634,0.903L499.749,419.136z"/>
			<path fill="#F89638" d="M479.639,419.145c-6.483,0-12.966,0-19.858,0c0-6.785,0-13.034,0-20.188c6.618,0,13.223,0,19.829,0
				l-0.069-0.067c3.442,4.615,3.458,15.622,0.029,20.326L479.639,419.145z"/>
			<path fill="#FFEEC0" d="M560.421,479.825c0.013-6.745,0.025-13.49,0.038-20.236c13.477,0,26.955,0,40.432,0
				c0.013,6.746,0.025,13.491,0.037,20.236c0,0-0.081-0.069-0.081-0.069c-1.437,2.028-3.597,2.307-5.818,2.352
				c-9.569,0.192-19.139,0.192-28.708,0c-2.221-0.044-4.382-0.323-5.818-2.352L560.421,479.825z"/>
			<path fill="#FECB55" d="M520.254,580.965c-0.068,6.729-0.135,13.459-0.201,20.188c-13.502,0-27.005,0-40.507,0
				c-0.067-6.729-0.134-13.459-0.201-20.188l0.458-0.109c1.43-2.103,3.652-2.225,5.856-2.267c9.426-0.179,18.854-0.18,28.28,0
				c2.203,0.042,4.426,0.164,5.855,2.267L520.254,580.965z"/>
			<path fill="#FECB55" d="M560.502,479.756c13.449,0,26.896,0,40.345,0c0.026,6.768,0.054,13.535,0.081,20.302
				c-13.502,0-27.004,0-40.506,0C560.448,493.291,560.476,486.524,560.502,479.756z"/>
			<path fill="#FFEEC0" d="M519.795,580.855c-13.331,0-26.661,0-39.992,0c-0.073-6.725-0.147-13.447-0.22-20.172
				c13.478,0,26.954,0,40.433,0C519.941,567.408,519.868,574.131,519.795,580.855z"/>
			<path fill="#FFEEC0" d="M418.963,499.984c-0.019,6.774-0.038,13.549-0.058,20.324c-6.728,0-13.456,0-20.184,0
				c-0.005-6.761-0.01-13.521-0.015-20.281C405.459,500.013,412.211,499.999,418.963,499.984z"/>
			<path fill="#FFEEC0" d="M479.569,419.216c-0.01-6.775-0.019-13.551-0.029-20.326c6.752,0.015,13.504,0.029,20.256,0.043
				c0.004,6.763,0.009,13.525,0.014,20.288C493.063,419.219,486.316,419.217,479.569,419.216z"/>
		</g>
	</g>
	<g display="inline">
		<g>
			<path fill="#DF5E26" d="M647.719,943.152c0,15.855,0,31.707,0,48.285c-98.754,0-196.016,0-295.643,0c0-15.973,0-32.131,0-48.285
				c0.436-0.686,0.871-1.375,1.307-2.061c5.148-4.461,11.518-3.859,17.563-3.877c85.967-0.217,171.936-0.217,257.902,0
				c6.045,0.014,12.416-0.586,17.564,3.875C646.848,941.777,647.283,942.467,647.719,943.152z"/>
			<path fill="#DF5E26" d="M943.014,352.213c15.855,0,31.711,0,48.285,0c0,98.754,0,196.018,0,295.643c-15.975,0-32.131,0-48.285,0
				c-0.688-0.438-1.373-0.871-2.063-1.307c-4.459-5.148-3.857-11.518-3.875-17.563c-0.215-85.967-0.215-171.936,0-257.902
				c0.014-6.045-0.584-12.414,3.875-17.563C941.641,353.084,942.326,352.65,943.014,352.213z"/>
			<path fill="#F89638" d="M352.049,56.893c0-15.873,0-31.746,0-48.299c98.865,0,196.232,0,296.07,0c0,16.26,0,32.453,0,48.648
				c-0.49,0.65-0.979,1.299-1.469,1.949c-5.287,4.125-11.605,3.666-17.684,3.682c-86.016,0.186-172.031,0.201-258.049-0.018
				c-6.047-0.016-12.42,0.578-17.566-3.893C352.918,58.273,352.484,57.582,352.049,56.893z"/>
			<path fill="#DF5E26" d="M56.779,647.855c-15.82,0-31.639,0-48.617,0c0-50.195,0-99.012,0-147.828
				c15.506-10.355,31.869-6.064,48.176-2.82c1.441,0.801,2.574,1.918,3.402,3.344c2.586,4.861,2.953,10.164,2.982,15.506
				c0.221,38.064,0.232,76.125-0.027,114.188c-0.039,5.656,0.357,11.584-3.865,16.326C58.146,647,57.463,647.428,56.779,647.855z"/>
			<path fill="#F89638" d="M56.943,500.07c-16.262-0.014-32.521-0.029-48.781-0.043c0-48.537,0-97.074,0-147.838
				c16.336,0,32.463,0,48.594,0c0.689,0.438,1.381,0.873,2.072,1.311c3.936,4.334,3.787,9.801,3.832,15.051
				c0.33,38.352,0.354,76.705-0.025,115.057C62.576,489.555,63.311,496.143,56.943,500.07z"/>
			<path fill="#F89638" d="M253.621,106.107c0-15.791,0-31.582,0-49.215c33.633,0,66.031,0,98.428,0l0.525,0.531
				c9.793,15.158,5.535,31.389,3.164,47.301c-0.627,4.207-5.184,6.322-9.527,6.533c-28.621,1.395-57.246,1.799-85.859-0.229
				c-2.105-0.15-3.723-1.588-5.363-2.813C254.533,107.514,254.076,106.811,253.621,106.107z"/>
			<path fill="#DF5E26" d="M648.119,57.242c31.895,0,63.789,0,98.029,0c0,16.59,0,32.738,0,48.891
				c-0.418,0.676-0.832,1.352-1.25,2.029c-10.479,6.721-22.193,3.08-33.365,3.91c-5.281,0.393-10.568-0.668-15.881-0.598
				c-13.004,0.916-26.002,0.928-39.014,0.232c-9.318-0.498-14.629-5.229-14.357-14.529c0.389-13.43-4.82-27.652,4.992-39.922
				L648.119,57.242z"/>
			<path fill="#F89638" d="M56.756,352.189c0-32.105,0-64.209,0-98.43c17.031,0,33.123,0,49.213,0
				c0.703,0.455,1.406,0.91,2.109,1.367c3.328,3.609,3.607,8.176,3.695,12.668c0.479,24.148,0.713,48.305-0.09,72.445
				c-0.465,14.023-3.74,17.596-17.867,17.541c-12.273-0.049-25.479,4.459-36.529-5.07L56.756,352.189z"/>
			<path fill="#DF5E26" d="M893.801,253.783c15.785,0,31.57,0,49.213,0c0,33.654,0,66.043,0,98.43l-0.375,0.367
				c-8.268,5.889-40.742,7.947-48.426,3.021c-3.301-2.117-5.344-5.225-5.533-9.117c-1.406-28.65-1.785-57.305,0.209-85.949
				c0.148-2.107,1.58-3.73,2.805-5.375C892.395,254.701,893.096,254.242,893.801,253.783z"/>
			<path fill="#DF5E26" d="M746.148,893.936c0,15.789,0,31.574,0,49.217c-33.654,0-66.045,0-98.43,0l-0.367-0.375
				c-5.889-8.268-7.947-40.744-3.021-48.428c2.115-3.299,5.225-5.34,9.119-5.533c28.65-1.408,57.305-1.783,85.947,0.211
				c2.107,0.148,3.732,1.582,5.375,2.803C745.23,892.533,745.689,893.238,746.148,893.936z"/>
			<path fill="#DF5E26" d="M352.076,943.152c-32.096,0-64.189,0-98.43,0c0-17.045,0-33.131,0-49.217
				c0.459-0.697,0.918-1.402,1.377-2.104c4.385-3.9,9.873-3.695,15.145-3.773c22.535-0.33,45.078-0.521,67.607,0.059
				c16.885,0.434,20.115,3.396,19.99,20.617c-0.082,11.459,3.996,23.91-5.322,34.041L352.076,943.152z"/>
			<path fill="#DF5E26" d="M943.014,647.855c0,32.096,0,64.189,0,98.43c-17.043,0-33.129,0-49.213,0
				c-0.701-0.459-1.404-0.918-2.107-1.377c-3.898-4.385-3.695-9.871-3.773-15.145c-0.328-22.533-0.52-45.078,0.061-67.607
				c0.434-16.887,3.395-20.115,20.613-19.99c11.463,0.082,23.914-3.996,34.045,5.324L943.014,647.855z"/>
			<path fill="#DF5E26" d="M105.994,746.285c-15.785,0-31.568,0-49.215,0c0-33.654,0-66.039,0-98.43l0.377-0.365
				c15.561-9.979,31.924-5.902,48.238-2.762c1.451,0.77,2.605,1.854,3.465,3.252c2.203,4.074,2.912,8.5,2.979,13.051
				c0.336,23.773,0.414,47.551-0.057,71.324c-0.088,4.496-0.359,9.074-3.746,12.66C107.355,745.438,106.674,745.861,105.994,746.285
				z"/>
			<path fill="#DF5E26" d="M155.209,795.498c-15.738,0-31.475,0-49.215,0c0-17.139,0-33.176,0-49.213l0.375-0.367
				c8.416-5.961,40.553-7.967,48.395-3.014c2.518,1.592,4.77,3.781,5.018,6.668c1.287,14.939,4.375,30.027-2.453,44.529
				C156.621,794.566,155.916,795.033,155.209,795.498z"/>
			<path fill="#DF5E26" d="M893.801,746.285c-0.139,14.986-0.268,29.975-0.443,44.961c-0.01,0.754-0.451,1.5-1.338,4.252
				c-15.363,0-31.398,0-47.434,0c-0.707-0.465-1.412-0.932-2.121-1.396c-6.826-14.502-3.74-29.59-2.453-44.529
				c0.248-2.887,2.502-5.076,5.021-6.668c7.844-4.953,39.977-2.947,48.391,3.014L893.801,746.285z"/>
			<path fill="#DF5E26" d="M204.422,844.713c-15.736,0-31.473,0-49.213,0c0-17.139,0-33.176,0-49.215l0.375-0.365
				c8.416-5.961,40.551-7.969,48.393-3.014c2.52,1.592,4.771,3.781,5.02,6.666c1.287,14.941,4.377,30.027-2.453,44.533
				C205.838,843.783,205.131,844.246,204.422,844.713z"/>
			<path fill="#DF5E26" d="M844.586,795.498c-0.139,14.99-0.266,29.975-0.441,44.963c-0.01,0.752-0.453,1.5-1.34,4.252
				c-15.361,0-31.398,0-47.434,0c-0.705-0.467-1.412-0.932-2.119-1.398c-6.828-14.502-3.742-29.588-2.453-44.529
				c0.246-2.885,2.5-5.074,5.02-6.666c7.844-4.955,39.977-2.947,48.393,3.014L844.586,795.498z"/>
			<path fill="#DF5E26" d="M253.646,893.936c-15.738,0-31.479,0-49.225,0c0-17.145,0-33.182,0-49.223l0.377-0.365
				c15.451-10.018,31.863-5.697,48.105-3.063c1.906,0.309,3.863,2.266,4.172,4.174c2.635,16.24,6.955,32.65-3.063,48.102
				L253.646,893.936z"/>
			<path fill="#DF5E26" d="M795.371,844.713c0,15.74,0,31.479,0,49.223c-17.146,0-33.186,0-49.223,0l-0.367-0.375
				c-10.02-15.451-5.699-31.861-3.066-48.104c0.313-1.906,2.268-3.863,4.174-4.172c16.246-2.635,32.656-6.955,48.107,3.063
				L795.371,844.713z"/>
			<path fill="#DF5E26" d="M844.586,204.57c15.736,0,31.475,0,49.215,0c0,17.141,0,33.178,0,49.213l-0.377,0.369
				c-8.414,5.961-40.549,7.965-48.391,3.014c-2.52-1.592-4.773-3.783-5.021-6.668c-1.287-14.939-4.375-30.027,2.453-44.531
				C843.172,205.502,843.877,205.035,844.586,204.57z"/>
			<path fill="#F89638" d="M105.969,253.76c0-15.748,0-31.492,0-49.215c17.133,0,33.174,0,49.215,0
				c0.707,0.463,1.414,0.924,2.121,1.387c6.873,14.912,4.051,30.307,2.072,45.6c-0.371,2.859-2.816,5.66-5.6,6.023
				c-15.939,2.068-32.135,6.51-47.275-3.273L105.969,253.76z"/>
			<path fill="#DF5E26" d="M795.371,155.355c15.736,0,31.473,0,49.215,0c0,17.141,0,33.178,0,49.215l-0.375,0.367
				c-8.416,5.963-40.553,7.967-48.393,3.012c-2.52-1.59-4.773-3.779-5.02-6.666c-1.289-14.939-4.377-30.025,2.453-44.529
				C793.957,156.287,794.664,155.822,795.371,155.355z"/>
			<path fill="#F89638" d="M155.184,204.545c0-15.746,0-31.492,0-49.215c17.133,0,33.174,0,49.215,0
				c0.707,0.463,1.414,0.926,2.121,1.389c6.873,14.91,4.051,30.305,2.072,45.598c-0.371,2.859-2.816,5.66-5.602,6.021
				c-15.936,2.07-32.133,6.512-47.273-3.27L155.184,204.545z"/>
			<path fill="#DF5E26" d="M746.148,106.133c15.738,0,31.477,0,49.223,0c0,17.146,0,33.186,0,49.223l-0.375,0.367
				c-15.529,9.99-31.881,5.865-48.174,2.807c-1.463-0.764-2.629-1.846-3.5-3.242c-3.834-16.494-7.277-32.969,2.459-48.779
				L746.148,106.133z"/>
			<path fill="#F89638" d="M204.398,155.33c0-15.748,0-31.498,0-49.223c17.135,0,33.178,0,49.223,0l0.523,0.533
				c9.766,15.445,5.619,31.789,2.93,47.982c-0.314,1.9-2.26,3.846-4.158,4.16c-16.195,2.689-32.537,6.836-47.986-2.93
				L204.398,155.33z"/>
			<path fill="#F89638" d="M745.994,155.498c16.332,0.074,32.666,0.148,49.002,0.225c0,15.699,0,31.4,0,49.215
				c17.813,0,33.514,0,49.215,0c0,15.699,0,31.398,0,49.215c17.813,0,33.516,0,49.213,0c0,32.059,0,64.117,0,98.428
				c17.738,0,33.479,0,49.215,0c0,98.305,0,196.605,0,294.91c-15.438,0-30.873,0-49.215,0c0,33.711,0,66.072,0,98.428
				c-15.699,0-31.4,0-49.213,0c0,17.816,0,33.518,0,49.215c-15.701,0-31.402,0-49.215,0c0,17.816,0,33.516,0,49.215
				c-15.703,0-31.4,0-49.215,0c0,17.814,0,33.516,0,49.215c-32.061-0.002-64.117-0.002-98.43-0.002c0,17.74,0,33.479,0,49.217
				c-98.303,0-196.605,0-294.91,0c0.002-15.439,0.002-30.875,0.002-49.215c-33.713,0-66.072,0-98.43-0.002
				c0-15.697,0-31.398,0-49.213c-17.814,0-33.516,0-49.215,0c0-15.699,0-31.402,0-49.215c-17.814,0-33.514,0-49.215,0
				c0-15.697,0-31.4,0-49.215c-17.814,0-33.516,0-49.215,0c-0.074-32.738-0.148-65.477-0.225-98.217
				c3.539-6.045,9.674-5.227,15.279-5.729c2.447-0.221,4.916-0.131,7.377-0.145c31.074-0.178,31.242-0.02,32.529,30.896
				c0.613,14.662,3.707,17.707,18.537,18.246c29.645,1.074,29.645,1.074,30.658,30.279c0.539,15.531,3.543,18.65,19.051,18.895
				c19.676,0.311,39.363-0.271,59.037,0.283c16.609,0.465,19.973,3.275,19.977,19.434c0.002,30.236,3.141,29.553,29.717,29.861
				c16.275,0.189,19.547,3.332,19.518,19.82c-0.051,29.51,2.756,29.172,30.123,29.139c76.674-0.092,153.344,0.008,230.018-0.057
				c21.469-0.016,23.26-1.848,23.723-22.908c0.051-2.457,0.061-4.92,0.199-7.375c0.836-14.932,3.674-18.063,18.383-18.611
				c19.668-0.732,39.359-0.104,59.037-0.332c17.762-0.207,20.332-2.852,20.779-20.906c0.67-27.197,1.133-27.666,27.717-28.26
				c18.727-0.418,21.057-2.752,21.502-21.525c0.041-1.641,0.041-3.281,0.092-4.922c0.605-19.998,2.795-22.133,23.277-22.697
				c4.096-0.111,8.199-0.055,12.291-0.34c8.268-0.582,12.664-5.006,13.27-13.252c0.273-3.686,0.266-7.377,0.268-11.066
				c0.018-94.709,0.041-189.422-0.014-284.133c-0.012-21.824-1.818-23.551-23.887-24.063c-3.277-0.076-6.553-0.283-9.828-0.387
				c-10.094-0.318-14.738-5.691-15.098-15.531c-0.736-20.086-0.178-40.176-0.389-60.264c-0.209-19.535-2.43-21.781-22.025-22.219
				c-2.051-0.047-4.102-0.047-6.148-0.129c-17.797-0.695-20.475-3.203-20.842-21.283c-0.449-22.135-0.371-44.281,0.008-66.418
				C740.381,166.039,739.535,159.41,745.994,155.498z"/>
			<path fill="#FECB55" d="M745.994,155.498c0,31.91,0,63.822,0,98.07c16.564,0,31.783,0,48.869,0c0,33.617,0,64.941,0,98.576
				c17.051,0,32.275,0,48.488,0c0,115.656,0,228.957,0,344.182c-15.508,0-30.424,0-47.676,0c0,17.051,0,32.273,0,49.369
				c-17.209,0-32.123,0-49.371,0c0,17.055,0,32.277,0,49.365c-33.615,0-64.943,0-98.15,0c0,16.752,0,31.662,0,48.018
				c-99.105,0-196.285,0-295.398,0c0-15.166,0-30.08,0-47.33c-17.055,0-32.275,0-49.367,0c0-17.213,0-32.125,0-49.363
				c-33.461,0-65.1,0-98.578,0c0-17.217,0-32.131,0-48.932c-16.758,0-31.691,0-48.932,0c0-17.045,0-32.285,0-49.75
				c-18.1,0-33.916,0-49.734-0.002l0.014,0.016c-6.361-5.041-5.701-12.277-5.752-19.143c-0.252-33.887,0.037-67.779-0.16-101.672
				c-0.105-17.965-2.754-20.395-20.5-21.051c-7.949-0.289-16.621,1.65-22.816-5.793l0.014,0.012
				c0.113-49.119,0.229-98.24,0.342-147.359c15.469,0,30.936,0,49.215,0c0-34.111,0-66.271,0-98.43c15.463,0,30.926,0,49.213,0
				c0-17.674,0-33.443,0.002-49.215c15.463,0.002,30.926,0.002,49.213,0.002c0-17.676,0-33.447,0.002-49.215
				c15.463,0,30.926,0,49.213,0c0-17.676,0-33.445,0.002-49.215c31.861,0.002,63.723,0.002,98.428,0.002c0-17.666,0-33.441,0-49.217
				c98.234-0.055,196.467-0.111,294.701-0.168c0,15.816,0,31.631,0,49.396c17.65,0,33.459,0,49.268,0
				c8.166,5.883,5.699,14.729,5.971,22.6c0.641,18.516,2.033,19.949,20.674,20.5c7.949,0.234,16.658-1.836,22.82,5.758
				L745.994,155.498z"/>
			<path fill="#F89638" d="M56.93,500.059c15.475,0,30.951,0,49.229,0c0,50.068,0,98.863,0,147.654
				c-16.334-0.072-32.668-0.146-49.004-0.223C57.08,598.348,57.006,549.201,56.93,500.059z"/>
			<path fill="#F89638" d="M746.006,155.51c-15.691,0-31.385,0-49.465,0c0-17.535,0-33.197,0-48.857
				c16.414-0.049,32.828-0.098,49.24-0.145C745.855,122.842,745.932,139.176,746.006,155.51z"/>
			<path fill="#FDE59B" d="M254.012,451.156c-15.809,0-31.617,0-49.131,0c0-17.209,0-32.127,0-49.189c-16.893,0-32.111,0-48.383,0
				c0-33.43,0-64.691,0-98.158c15.246,0,30.463,0,47.83,0c0-17.336,0-32.568,0-49.82c17.928,0,33.727,0,49.525,0
				c5.635,4.283,5.639,10.521,5.729,16.688c0.287,19.627-0.168,39.258,0.234,58.881c0.277,13.504,3.381,16.615,16.859,16.846
				c17.988,0.307,35.988,0.402,53.973-0.053c12.113-0.307,15.268-3.451,15.561-15.564c0.445-18.393,0.43-36.803,0.008-55.197
				c-0.277-12.016-3.523-15.258-15.572-15.58c-20.029-0.535-40.07,0.02-60.105-0.287c-6.168-0.094-12.406-0.096-16.689-5.73
				c0-15.49,0-30.98,0-48.635c16.338,0,31.553,0,48.914,0c0-17.316,0-32.531,0-48.76c50.094,0,98.01,0,148.254,0
				c0,16.732,0,32.535,0,48.34c9.629,15.672,5.982,32.02,2.482,48.344c-5.059,7.016-12.732,6.096-19.955,6.443
				c-4.471,0.217-8.951,0.115-13.426,0.234c-8.512,0.227-12.723,4.637-12.635,13.037c0.072,6.82-1.398,13.869,2.877,20.953
				c12.428,8.186,28.926-1.461,41.627,7.727c6.447,8.59,4.047,18.643,4.529,28.172c0.691,13.631,3.041,15.928,16.559,16.736
				c8.682,0.52,17.936-2.184,25.805,3.891c0.355,0.596,0.707,1.193,1.059,1.789c0,15.523,0,31.047,0,48.76
				c-16.42,0-31.658,0-49.479,0c0,17.922,0,33.715,0,49.51c-1.963,5.254-6.635,5.402-11.1,5.785
				c-6.09,0.525-12.205,0.355-18.311,0.477c-8.977,0.18-13.432,4.633-13.609,13.611c-0.121,6.104,0.049,12.221-0.477,18.311
				c-0.385,4.465-0.531,9.137-5.785,11.098c-16.371,0.186-32.742,0.371-49.113,0.559c-15.906,9.346-32.357,6.391-48.848,2.16
				c-7.525-6.584-5.727-15.609-5.953-23.951c-0.549-20.281-1.666-21.447-21.594-21.975
				C268.121,456.404,259.924,458.133,254.012,451.156z"/>
			<path fill="#F89638" d="M744.975,599.568c0,32.594,0,63.857,0,96.221c-32.25,0-63.516,0-96.113,0c0-31.994,0-63.551,0-96.221
				C680.787,599.568,712.051,599.568,744.975,599.568z"/>
			<path fill="#F89638" d="M401.18,499.813c0-15.777,0-31.555,0-49.279c17.727,0,33.502,0,49.281,0
				c15.498-0.002,30.998-0.002,47.959-0.002c0,33.092,0,64.629,0,97.451c-31.721,0-63.262,0-97.24,0
				C401.18,531.434,401.18,515.625,401.18,499.813z"/>
			<path fill="#F89638" d="M647.531,401.596c0-15.492,0-30.986,0-47.828c32.994,0,64.547,0,98.447,0c0,16.23,0,32.029,0,47.828
				c-0.434,0.666-0.867,1.33-1.303,1.996c-3.582,3.316-8.127,3.535-12.58,3.619c-23.561,0.441-47.121,0.439-70.68,0.002
				c-4.455-0.086-9-0.305-12.584-3.619C648.4,402.928,647.967,402.262,647.531,401.596z"/>
			<path fill="#DF5E26" d="M549.023,746.023c0,15.816,0,31.633,0,48.363c-32.877,0-64.484,0-98.252,0c0-16.117,0-32.24,0-48.363
				c0.439-0.656,0.879-1.314,1.318-1.973c3.592-3.291,8.129-3.471,12.566-3.553c23.492-0.432,46.988-0.432,70.48,0
				c4.438,0.082,8.975,0.262,12.566,3.549C548.146,744.707,548.582,745.367,549.023,746.023z"/>
			<path fill="#DF5E26" d="M745.881,499.953c0,15.818,0,31.637,0,48.363c-32.879,0-64.482,0-98.252,0c0-16.121,0-32.242,0-48.363
				c0.439-0.66,0.881-1.318,1.32-1.977c3.592-3.289,8.127-3.471,12.566-3.551c23.492-0.432,46.986-0.43,70.479-0.002
				c4.439,0.082,8.977,0.264,12.568,3.551C745.002,498.633,745.439,499.293,745.881,499.953z"/>
			<path fill="#F89638" d="M450.674,647.67c0-15.494,0-30.988,0-47.83c32.994,0,64.545,0,98.447,0c0,16.23,0,32.029,0,47.83
				c-0.434,0.664-0.869,1.33-1.303,1.992c-3.586,3.318-8.127,3.537-12.58,3.621c-23.561,0.441-47.123,0.439-70.682,0.002
				c-4.453-0.086-8.996-0.305-12.582-3.619C451.541,649.002,451.107,648.336,450.674,647.67z"/>
			<path fill="#DF5E26" d="M302.836,549.342c0,15.852,0,31.703,0,48.32c-16.752,0-32.057,0-48.809,0c0-16.617,0-32.469,0-48.32
				c0.389-0.66,0.777-1.32,1.166-1.982c15.492-6.066,30.984-6.07,46.477,0C302.061,548.021,302.447,548.682,302.836,549.342z"/>
			<path fill="#F89638" d="M254.027,549.342c-15.525,0-31.053,0-47.984,0c0-16.572,0-31.748,0-49.316c16.146,0,31.959,0,47.771,0
				c0.672,0.443,1.34,0.883,2.01,1.324c5.244,16.26,7.557,32.398-1.955,48.059L254.027,549.342z"/>
			<path fill="#F89638" d="M254.563,695.506c0-15.912,0-30.479,0-46.438c15.805,0,30.955,0,47.305,0c0,15.307,0,30.168,0,46.438
				C286.492,695.506,271.342,695.506,254.563,695.506z"/>
			<path fill="#F89638" d="M401.746,697.154c0-15.777,0-31.551,0-49.484c17.416,0,33.172,0,48.928,0l0.016,0.016
				c10.291,15.51,5.986,31.936,3.035,48.281c-0.754,1.469-1.826,2.645-3.217,3.531C434.029,703.41,417.574,706.777,401.746,697.154z
				"/>
			<path fill="#DF5E26" d="M794.91,451.088c0,15.529,0,31.057,0,48.865c-16.691,0-32.859,0-49.029,0l0.172,0.166
				c-10.164-15.539-6.262-31.982-3.113-48.381c0.76-1.475,1.84-2.65,3.24-3.537C762.697,444.508,779.236,440.5,794.91,451.088z"/>
			<path fill="#F89638" d="M549.121,647.67c15.449,0,30.9,0,48.928,0c0,17.324,0,33.402,0,49.484
				c-15.545,9.857-31.869,5.844-48.148,2.688c-1.461-0.777-2.615-1.871-3.477-3.279c-3.789-16.549-7.268-33.08,2.682-48.877
				L549.121,647.67z"/>
			<path fill="#DF5E26" d="M647.629,499.953c-15.859,0-31.723,0-49.031,0c0-17.211,0-33.037,0-48.865
				c3.043-4.682,7.791-5.791,12.854-5.777c11.805,0.037,23.785-2.086,35.266,2.545c1.467,0.777,2.629,1.871,3.496,3.283
				c3.82,16.594,7.311,33.168-2.754,48.98L647.629,499.953z"/>
			<path fill="#DF5E26" d="M401.746,697.154c16.121-0.037,32.242-0.07,48.363-0.104c1.025,0.611,2.268,0.938,2.928,2.037
				c6.029,10.02,4.586,37.756-2.438,47.104l0.172-0.168c-15.863,0-31.725,0-49.025,0
				C401.746,728.809,401.746,712.982,401.746,697.154z"/>
			<path fill="#F89638" d="M254.012,451.156c15.52,0,31.041,0,48.957,0c0,16.637,0,32.791,0,48.945
				c-0.445,0.662-0.889,1.326-1.334,1.99c-16.176,4.977-32.254,7.623-47.803-2.049l-0.018-0.018
				C253.881,483.736,253.945,467.447,254.012,451.156z"/>
			<path fill="#DF5E26" d="M549.686,697.051c16.121,0.033,32.242,0.066,48.363,0.104c0,15.529,0,31.061,0,48.869
				c-16.686,0-32.855,0-49.025,0l0.172,0.168C540.539,734.672,540.816,706.74,549.686,697.051z"/>
			<path fill="#F89638" d="M794.91,451.088c-16.283-0.072-32.57-0.145-48.857-0.219c-8.369-10.658-8.42-37.965-0.09-49.256
				c0,0,0.016-0.016,0.016-0.018c14.279,0.1,28.561,0.176,42.84,0.338c1.176,0.014,2.346,0.604,6.092,1.631
				C794.91,418.928,794.91,435.008,794.91,451.088z"/>
			<path fill="#F89638" d="M647.455,450.869c-16.285,0.074-32.572,0.146-48.857,0.219c0-15.779,0-31.561,0-49.49
				c17.422,0,33.178,0,48.934-0.002l0.018,0.018C655.877,412.904,655.826,440.211,647.455,450.869z"/>
			<path fill="#FFEEC0" d="M549.025,303.281c0,15.791,0,31.582,0,48.98c-17.492,0-33.289,0-49.086,0l0.045,0.102
				c-10.059-16.484-7.451-33.314-1.377-50.242C515.57,295.629,532.443,293.246,549.025,303.281z"/>
			<path fill="#F89638" d="M648.523,301.977c0-15.891,0-30.75,0-46.814c15.652,0,30.514,0,46.813,0c0,15.285,0,30.438,0,46.814
				C680.119,301.977,665.258,301.977,648.523,301.977z"/>
			<path fill="#F89638" d="M549.025,303.281c-16.416-0.045-32.834-0.09-49.252-0.135c-0.641-0.426-1.279-0.85-1.918-1.273
				c-5.787-15.576-5.932-31.143,0.1-46.693c0.65-0.408,1.301-0.818,1.951-1.227c15.428,0,30.855,0,49.119,0
				C549.025,271.201,549.025,287.24,549.025,303.281z"/>
			<path fill="#F89638" d="M450.752,254.029c0.088-16.365,0.176-32.73,0.266-49.094c15.352,0,30.703,0,48.889,0
				c0,17.047,0,33.031,0,49.018l-0.016,0.016c-15.551,9.674-31.627,7.027-47.807,2.051
				C451.641,255.357,451.195,254.691,450.752,254.029z"/>
			<path fill="#F89638" d="M550.064,154.361c0-15.984,0-30.842,0-46.871c15.744,0,30.604,0,46.875,0c0,15.371,0,30.521,0,46.871
				C581.623,154.361,566.766,154.361,550.064,154.361z"/>
			<path fill="#F89638" d="M302.969,500.102c16.365,0.088,32.732,0.178,49.098,0.268c0,15.377,0,30.756,0,48.973
				c-17.164,0-33.197,0-49.23,0l0.158,0.066c-8.27-11.514-8.193-38.301,0.143-49.471L302.969,500.102z"/>
			<path fill="#FFFFFF" d="M253.85,253.99c32.168,0,64.334,0,97.438,0c0,33.365,0,64.945,0,97.465c-32.184,0-63.471,0-97.434,0
				c0-32.543,0-65.006,0-97.467L253.85,253.99z"/>
			<path fill="#DF5E26" d="M499.773,303.146c0.07,16.406,0.141,32.813,0.211,49.219c-15.844-0.002-31.686-0.002-49.16-0.002
				c0-16.92,0-33.059,0-49.195c0.438-0.67,0.873-1.342,1.309-2.014c16.193-4.988,32.285-7.779,47.791,2.197L499.773,303.146z"/>
			<path fill="#F89638" d="M450.824,303.168c-15.779,0-31.561,0-48.336,0c0-16.514,0-31.725,0-49.139c16.109,0,32.186,0,48.264,0
				l-0.168-0.164c8.381,11.232,8.418,38.025,0.07,49.475L450.824,303.168z"/>
			<path fill="#FFEEC0" d="M647.455,450.869c0.031-16.418,0.063-32.836,0.094-49.256c32.803,0,65.611,0,98.414,0
				c0.031,16.42,0.061,32.838,0.09,49.256l-0.197-0.168c-3.496,4.938-8.754,5.615-14.162,5.725c-23.293,0.467-46.586,0.467-69.877,0
				c-5.406-0.109-10.666-0.787-14.164-5.725L647.455,450.869z"/>
			<path fill="#FECB55" d="M549.686,697.051c-0.166,16.381-0.328,32.762-0.49,49.141c-32.863,0-65.73,0-98.596,0
				c-0.164-16.379-0.328-32.76-0.49-49.141l1.115-0.266c3.48-5.117,8.891-5.414,14.254-5.518c22.945-0.434,45.893-0.438,68.838,0
				c5.361,0.104,10.771,0.4,14.252,5.518L549.686,697.051z"/>
			<path fill="#FECB55" d="M647.652,450.701c32.736,0,65.469,0,98.203,0c0.064,16.473,0.131,32.945,0.197,49.418
				c-32.865,0-65.73,0-98.594,0C647.521,483.646,647.59,467.174,647.652,450.701z"/>
			<path fill="#FFEEC0" d="M548.568,696.785c-32.449,0-64.895,0-97.344,0c-0.178-16.369-0.357-32.732-0.535-49.1
				c32.805,0,65.609,0,98.416,0C548.926,664.053,548.746,680.416,548.568,696.785z"/>
			<path fill="#FFEEC0" d="M303.137,499.938c-0.047,16.49-0.094,32.98-0.141,49.471c-16.377,0-32.754,0-49.129,0
				c-0.012-16.455-0.023-32.912-0.035-49.365C270.268,500.008,286.701,499.973,303.137,499.938z"/>
			<path fill="#FFEEC0" d="M450.654,303.34c-0.023-16.49-0.045-32.982-0.07-49.475c16.438,0.035,32.871,0.07,49.307,0.104
				c0.01,16.461,0.021,32.922,0.033,49.383C483.5,303.348,467.078,303.344,450.654,303.34z"/>
		</g>
	</g>
</g>
<g id="Layer_2">
	<path fill="#903F1F" d="M949.268,352.966c15.63,0,31.261,0,48.106,0c0,99.294,0,197.461,0,297.731c-16.205,0-32.135,0-48.061,0
		c-0.683-0.402-1.361-0.806-2.043-1.205c-6.884-10.341-3.162-21.992-4.019-33.062c-0.406-5.242,0.552-10.492,0.642-15.753
		c-1.141-16.603-0.993-33.204-0.02-49.813c-1.555-60.888-0.565-121.781-0.517-182.669c0.004-4.896,0.13-9.962,3.832-13.938
		C947.884,353.828,948.575,353.397,949.268,352.966z"/>
	<path fill="#903F1F" d="M651.964,947.94c0,15.634,0,31.267,0,48.11c-99.304,0-197.478,0-297.67,0c0-16.245,0-32.179,0-48.11
		c0.435-0.695,0.871-1.389,1.306-2.083c5.178-4.51,11.591-3.91,17.678-3.924c86.569-0.22,173.135-0.216,259.702,0
		c6.09,0.014,12.501-0.586,17.677,3.923C651.097,946.552,651.531,947.245,651.964,947.94z"/>
	<path fill="#DE9532" d="M354.233,55.614c0-15.937,0-31.874,0-48.533c99.554,0,197.4,0,297.726,0c0,16.097,0,32.348,0,48.598
		c-0.409,0.676-0.816,1.353-1.222,2.03c-10.342,6.794-21.96,3.125-33.016,3.97c-5.232,0.4-10.475-0.557-15.719-0.646
		c-16.555,1.136-33.107,1.012-49.659,0.023c-60.984,1.553-121.969,0.555-182.952,0.524c-4.082-0.002-8.278-0.13-11.965-2.413
		C356.007,58.301,354.942,57.116,354.233,55.614z"/>
	<path fill="#903F1F" d="M56.947,650.697c-15.629,0-31.255,0-48.88,0c0-50.435,0-99.674,0-148.918
		c16.45-9.913,33.25-7.234,50.144-1.417c3.797,4.3,4.634,9.574,4.667,15.007c0.183,28.049,0.957,56.099-0.494,84.129
		c-0.163,16.097,3.24,32.347-1.962,48.243C59.56,649.079,58.4,650.064,56.947,650.697z"/>
	<path fill="#903F1F" d="M106.494,749.789c-15.599,0-31.199,0-49.547,0c0-33.764,0-66.429,0-99.092l0.664-0.659
		c16.436-9.222,33.174-6.82,49.997-1.311c3.213,3.494,4.486,7.777,4.616,12.367c0.726,25.765,0.748,51.532-0.018,77.298
		c-0.084,2.843-0.474,5.723-2.161,8.204C109.179,748.012,107.994,749.079,106.494,749.789z"/>
	<path fill="#DE9532" d="M255.138,105.163c0-15.959,0-31.916,0-49.548c34.191,0,66.644,0,99.096,0l0.697,0.708
		c9.667,15.311,5.449,31.624,3.039,47.654c-0.549,3.647-4.586,6.127-8.476,6.248c-30.363,0.93-60.769,3.602-91.039-1.457
		C257.012,107.876,255.908,106.673,255.138,105.163z"/>
	<path fill="#FCBE80" d="M57.105,353.052c0-32.377,0-64.755,0-99.088c17.067,0,33.305,0,49.544,0c0.694,0.46,1.39,0.919,2.087,1.378
		c3.328,3.632,3.573,8.221,3.658,12.727c0.462,24.226,0.706,48.462-0.093,72.68c-0.474,14.339-3.589,17.665-17.696,17.871
		c-12.085,0.176-24.636,3.224-36.122-3.479C58.023,354.446,57.565,353.749,57.105,353.052z"/>
	<path fill="#903F1F" d="M899.766,253.813c15.606,0,31.21,0,49.499,0c0,33.792,0,66.472,0.003,99.153l-0.422,0.4
		c-16.46,9.55-33.392,6.958-50.424,1.968c-2.933-3.666-4.235-7.987-4.362-12.563c-0.72-26.247-0.894-52.5,0.111-78.745
		c0.095-2.44,0.557-4.907,2.038-7.007C897.075,255.596,898.262,254.528,899.766,253.813z"/>
	<path fill="#F47638" d="M57.314,501.836c-16.414-0.02-32.831-0.04-49.247-0.057c0.001-33.025,0.003-66.05,0.009-99.075
		c6.117-7.83,14.943-5.496,22.869-5.727c8.55-0.252,17.312-1.099,25.479,2.762c1.459,0.771,2.618,1.86,3.483,3.265
		c2.212,4.086,2.927,8.528,2.994,13.096c0.353,23.86,0.397,47.724-0.033,71.579c-0.084,4.515-0.291,9.11-3.565,12.788
		C58.639,500.922,57.979,501.381,57.314,501.836z"/>
	<path fill="#903F1F" d="M751.06,898.393c0,15.61,0,31.221,0,49.548c-33.725,0-66.407,0-99.093,0c-0.003,0-0.402-0.424-0.402-0.424
		c-5.924-8.342-7.979-41.051-3.016-48.761c2.14-3.317,5.278-5.36,9.193-5.551c28.848-1.409,57.697-1.804,86.537,0.227
		c2.122,0.15,3.752,1.598,5.404,2.835C750.139,896.973,750.601,897.684,751.06,898.393z"/>
	<path fill="#903F1F" d="M354.294,947.94c-32.383,0-64.763,0-99.152,0c0-17.696,0-33.599,0-49.504c0.436-0.7,0.872-1.397,1.309-2.1
		c3.984-3.714,9.061-3.778,13.979-3.855c23.933-0.37,47.868-0.468,71.798,0.073c4.878,0.109,10.035-0.04,13.872,4.009
		c5.547,17.147,8.349,34.229-1.406,50.953L354.294,947.94z"/>
	<path fill="#903F1F" d="M949.313,650.697c0,32.366,0,64.733,0,99.096c-17.748,0-33.648,0-49.548,0
		c-0.697-0.436-1.396-0.869-2.097-1.302c-3.983-4.35-3.813-9.846-3.896-15.135c-0.336-22.586-0.32-45.171-0.011-67.759
		c0.08-5.788,0.567-11.522,4.488-16.282c16.899-6.633,33.727-8.323,50.398,0.723L949.313,650.697z"/>
	<path fill="#DE9532" d="M205.446,154.931c0-15.845,0-31.689,0-49.769c17.442,0,33.57,0,49.691,0l0.697,0.705
		c9.281,16.506,6.481,33.379,1.538,50.331c-16.716,7.401-33.572,6.556-50.5,0.775C206.398,156.294,205.92,155.612,205.446,154.931z"
		/>
	<path fill="#903F1F" d="M701.303,56.288c15.938,0,31.879,0,49.746,0c0,17.09,0,33.014,0,48.939
		c-0.438,0.693-0.877,1.386-1.316,2.081c-16.733,5.935-33.375,6.706-49.873-0.884C694.08,89.533,691.361,72.726,701.303,56.288z"/>
	<path fill="#903F1F" d="M156.039,799.338c-15.879,0-31.76,0-49.545,0c0-17.794,0-33.671,0-49.549l0.661-0.656
		c15.288-9.733,31.604-5.436,47.629-3.113c3.675,0.533,6.02,4.524,6.321,8.425c1.072,13.899,2.944,27.86-1.464,41.576
		C158.753,797.464,157.551,798.568,156.039,799.338z"/>
	<path fill="#903F1F" d="M899.766,749.793c0,15.881,0,31.76,0,49.545c-17.792,0-33.667,0-49.546,0
		c-0.714-0.462-1.43-0.923-2.145-1.383c-7.004-14.989-4.071-30.492-2.165-45.885c0.358-2.882,2.788-5.725,5.587-6.107
		c16.044-2.184,32.327-6.522,47.604,3.17L899.766,749.793z"/>
	<path fill="#903F1F" d="M205.585,848.884c-15.875,0-31.751,0-49.546,0c0-17.796,0-33.67,0-49.546l0.667-0.657
		c15.285-9.733,31.6-5.437,47.626-3.112c3.673,0.532,6.019,4.522,6.32,8.422c1.073,13.899,2.942,27.86-1.463,41.576
		C208.299,847.009,207.098,848.114,205.585,848.884z"/>
	<path fill="#903F1F" d="M850.22,799.338c0,15.881,0,31.763,0,49.487c-17.82,0-33.706,0-49.592,0
		c-0.698-0.438-1.393-0.879-2.09-1.317c-6.154-16.809-6.289-33.559,0.47-50.256c17.018-5.691,33.943-7.666,50.548,1.431
		L850.22,799.338z"/>
	<path fill="#903F1F" d="M255.142,898.437c-15.883,0-31.765,0-49.556,0c0-17.798,0-33.676,0-49.553l0.666-0.655
		c15.304-9.683,31.607-5.319,47.687-3.197c2.347,0.312,4.746,2.709,5.054,5.054c2.123,16.081,6.486,32.385-3.193,47.69
		L255.142,898.437z"/>
	<path fill="#903F1F" d="M800.628,848.825c0,15.901,0,31.804,0,49.567c-17.774,0-33.672,0-49.568,0l-0.4-0.422
		c-10.06-15.555-5.729-32.068-3.07-48.416c0.312-1.92,2.28-3.89,4.2-4.202c16.348-2.656,32.861-6.987,48.418,3.074L800.628,848.825z
		"/>
	<path fill="#FCBE80" d="M56.845,402.357c-16.256,0.115-32.512,0.23-48.769,0.347c0-15.918,0-31.834,0-49.652
		c16.593,0,32.81,0,49.029,0l0.171,0.176C65.716,364.748,65.471,392.487,56.845,402.357z"/>
	<path fill="#903F1F" d="M850.22,204.265c15.172,0.264,30.341,0.515,45.512,0.839c0.707,0.016,1.4,0.704,4.034,2.107
		c0,14.848,0,30.724,0,46.601l-0.665,0.656c-15.281,9.736-31.601,5.439-47.626,3.115c-3.675-0.532-6.021-4.524-6.319-8.423
		c-1.071-13.898-2.945-27.86,1.462-41.578C847.509,206.139,848.708,205.035,850.22,204.265z"/>
	<path fill="#FCBE80" d="M106.649,253.963c0-15.9,0-31.801,0-49.548c17.141,0,33.343,0,49.545,0
		c0.707,0.479,1.414,0.957,2.118,1.432c6.757,14.637,3.753,29.823,2.359,44.874c-0.268,2.902-2.583,5.079-5.138,6.649
		c-8.041,4.94-40.436,2.784-48.713-3.236L106.649,253.963z"/>
	<path fill="#903F1F" d="M800.614,154.79c15.891,0,31.777,0,49.605,0c0,17.708,0,33.591,0,49.475l-0.664,0.657
		c-16.482,9.157-33.342,6.908-50.309,1.67c-6.955-16.718-6.955-33.547-0.73-50.466C799.217,155.682,799.914,155.234,800.614,154.79z
		"/>
	<path fill="#FCBE80" d="M156.194,204.415c0-15.864,0-31.73,0-49.484c16.97,0,33.113,0,49.252,0l0.466,0.575
		c7.367,5.745,5.319,14.071,5.732,21.617c0.362,6.534,0.076,13.096-0.53,19.638c-0.441,4.753-1.753,10.146-6.392,10.977
		c-16.256,2.912-32.87,7.193-48.356-3.151L156.194,204.415z"/>
	<path fill="#903F1F" d="M751.049,105.227c15.901,0,31.804,0,49.565,0c0,17.76,0,33.662,0,49.563l-0.398,0.38
		c-16.61,9.487-33.475,7.326-50.427,1.094c-6.62-17-8.662-33.92,0.878-50.642L751.049,105.227z"/>
	<path fill="#DE9532" d="M701.303,56.288c0.108,16.268,0.216,32.538,0.319,48.806c-0.425,0.704-0.852,1.41-1.275,2.114
		c-16.769,6.126-33.446,6.767-50.005-0.768c-5.976-16.933-8.28-33.776,1.205-50.336l0.412-0.422
		C668.407,55.883,684.856,56.084,701.303,56.288z"/>
	<path fill="#F89638" d="M899.58,352.761c16.42,0.201,32.846,0.403,49.266,0.605c-0.055,65.961-0.108,131.921-0.161,197.882
		c-16.233,10.276-33.016,6.909-49.854,2.025c-5.353-5.62-5.027-12.787-5.133-19.739c-0.297-18.915,0.123-37.836-0.218-56.749
		c-0.26-14.829-3.517-17.955-18.25-18.561c-31.143-1.274-31.111-1.274-31.205-32.463c-0.022-7.82,0.36-15.617,0.745-23.428
		c0.265-17.033-4.255-34.408,3.687-50.887C865.653,345.529,882.757,343.739,899.58,352.761z"/>
	<path fill="#BD3D26" d="M948.649,650.038c-16.288,0.226-32.574,0.45-48.861,0.675c-0.7-0.431-1.4-0.862-2.102-1.293
		c-6.057-16.754-6.745-33.425,0.811-49.963c16.921-5.942,33.757-8.288,50.303,1.227
		C948.747,617.134,948.698,633.587,948.649,650.038z"/>
	<path fill="#E84A24" d="M948.8,600.684c-16.339,0.158-32.671,0.321-49.006,0.484c-0.677-0.387-1.355-0.776-2.033-1.162
		c-6.448-15.761-6.169-31.556-0.206-47.373c0.664-0.411,1.328-0.823,1.991-1.237c16.379-0.05,32.762-0.1,49.139-0.15
		C948.725,567.726,948.76,584.205,948.8,600.684z"/>
	<path fill="#F89638" d="M800.207,848.427c-15.931,0-31.861,0-49.548,0c0,17.692,0,33.62,0,49.544c-32.427,0-64.854,0-99.095,0
		c0,17.672,0,33.61,0,49.546c-98.957,0-197.914,0-296.871,0c-0.014-16.401-0.031-32.805-0.045-49.211
		c3.638-7.007,10.477-5.668,16.377-5.827c19.364-0.53,38.736,0.013,58.103-0.3c15.099-0.247,17.898-3.243,18.533-18.172
		c0.398-9.35-1.377-19.105,4.667-27.528c6.523-4.959,14.232-3.61,21.501-3.649c49.125-0.267,98.252-0.056,147.381-0.15
		c22.2-0.05,24.119-1.971,24.675-23.781c0.065-2.476,0.08-4.958,0.247-7.426c0.981-14.325,3.737-17.621,18.027-17.933
		c28.885-0.628,57.784-1.001,86.674,0.34c12.254-0.786,24.517-1.044,36.775-0.355c4.85,0.272,10.033,0.243,12.644,5.691
		C800.237,815.616,800.221,832.021,800.207,848.427z"/>
	<path fill="#FECB55" d="M255.573,154.751c0.086-16.295,0.174-32.589,0.262-48.884c32.047,0,64.096,0,99.094,0
		c0-17.83,0-33.689,0-49.545c65.885-0.11,131.772-0.22,197.655-0.329c10.308,16.436,6.754,33.463,2.177,50.543
		c-5.396,5.838-12.656,4.381-19.332,4.641c-10.072,0.394-20.172,0.435-30.211-0.624c-14.03,1.529-28.463-0.867-41.891,2.723
		c-7.752,13.987-0.145,29.135-7.156,41.824c-0.863,1.29-1.978,2.263-3.361,2.958c-16.234,5.145-32.794,2.207-49.24,2.073
		c-32.864,1.242-65.727,1.188-98.594,0.053c-11.857,0.765-23.723,1.04-35.58,0.397C264.198,160.3,258.459,160.751,255.573,154.751z"
		/>
	<path fill="#F47638" d="M552.441,105.133c0.048-16.381,0.097-32.761,0.143-49.142c16.61,0.041,33.222,0.082,49.832,0.122
		c9.449,16.686,7.483,33.574,0.902,50.547C586.161,112.673,569.09,115.909,552.441,105.133z"/>
	<path fill="#E84A24" d="M602.189,105.391c0.074-16.426,0.149-32.852,0.227-49.278c16.376-0.003,32.757-0.007,49.131-0.009
		c-0.033,16.261-0.066,32.52-0.105,48.783c-0.328,0.705-0.659,1.41-0.99,2.114c-15.621,6.835-31.303,6.226-47.025,0.366
		C603.011,106.708,602.599,106.051,602.189,105.391z"/>
	<path fill="#F89638" d="M57.436,600.665c-0.041-32.943-0.083-65.888-0.122-98.829l-0.085,0.021
		c3.523-4.727,8.659-5.829,14.014-5.631c12.301,0.458,25.014-3.034,36.726,3.564c7.332,11.519,3.866,24.419,4.61,36.773
		c0.292,4.858-0.472,9.715-0.615,14.576c0.764,12.088,0.909,24.18,0.468,36.282c-0.196,5.309-0.94,10.453-4.555,14.708
		C90.869,608.282,73.956,611.088,57.436,600.665z"/>
	<path fill="#BD3D26" d="M57.436,600.665c16.507-0.004,33.017-0.01,49.525-0.013c0.619,0.422,1.238,0.845,1.859,1.27
		c6.135,15.192,4.873,30.565,1.1,45.997c-0.862,1.288-2.012,2.215-3.448,2.794c-16.287-0.225-32.576-0.442-48.864-0.67
		C57.551,633.582,57.492,617.123,57.436,600.665z"/>
	<path fill="#BD3D26" d="M453.706,848.755c0,15.61,0,31.224,0,49.551c-33.688,0-66.372,0-99.058,0
		c-32.953-0.175-65.903-0.352-98.854-0.53c0.004-15.518,0.004-31.033,0.004-49.543c-17.912,0-33.732,0-49.549-0.004
		c0.002-15.516,0.002-31.031,0.002-49.543c-17.913,0-33.73,0-49.547-0.003c0.002-15.515,0.002-31.034,0.002-49.545
		c-17.913,0-33.734,0-49.552,0c-0.224-32.81-0.45-65.621-0.679-98.426c-0.002,0.001,0.546-0.534,0.546-0.534
		c8.464-6.044,40.731-7.972,48.64-2.929c4.246,2.711,5.562,6.874,5.998,11.582c0.607,6.573,0.555,13.168,0.667,19.755
		c0.171,10.029,4.956,15.238,15.158,15.389c6.589,0.098,13.176,0.135,19.759,0.575c8.888,0.601,13.401,5.188,14.02,14.039
		c0.458,6.583,0.497,13.172,0.613,19.757c0.178,10.138,5.213,15.053,15.335,15.165c19.364,0.217,38.722-0.034,58.084,0.16
		c7,0.069,14.06-0.096,20.471,3.466c7.33,6.958,4.649,16.114,4.948,24.414c0.699,19.578,2.087,21.303,21.038,21.633
		c27.846,0.483,28.138,0.774,28.634,28.463c0.345,19.001,2.227,20.936,21.502,21.025c7.802,0.036,15.568,0.591,23.373,0.825
		c11.911-1.02,23.827-1.045,35.73-0.428C445.857,843.318,451.085,843.263,453.706,848.755z"/>
	<path fill="#F47638" d="M255.573,154.751c16.413,0.131,32.827,0.26,49.24,0.389c8.197,6.486,5.795,15.759,5.895,24.094
		c0.353,29.722-0.464,30.397-29.81,31.211c-16.605,0.46-19.123,3.028-19.596,19.634c-0.222,7.771,0.682,15.697-2.756,23.091
		c-0.663,1.381-1.624,2.51-2.875,3.39c-8.402,4.601-17.628,3.04-26.578,3.453c-13.66,0.631-17.088,3.444-17.172,16.793
		c-0.2,32.488-1.153,32.774-33.346,32.89c-12.715,0.045-15.922,3.525-16.219,16.372c-0.458,19.713,0.049,39.442-0.257,59.161
		c-0.107,6.937,0.294,14.119-5.313,19.632c-3.585,2.301-7.571,3.283-11.737,3.388c-25.098,0.625-50.2,0.611-75.304,0.023
		c-4.707-0.112-8.935-1.338-12.087-5.116l-0.813-0.799c0.143-16.377,0.286-32.753,0.431-49.13c15.602,0,31.208,0,49.545,0
		c0-33.737,0-66.415,0-99.094c15.896,0,31.792,0,49.545,0c0-17.768,0-33.658,0-49.547c15.834,0,31.67,0,49.541,0
		c0-17.498,0-33.292,0-49.084C222.464,155.254,239.018,155.004,255.573,154.751z"/>
	<path fill="#BD3D26" d="M899.58,352.761c-16.59,0.245-33.177,0.493-49.764,0.74c-16.586,9.235-33.554,7.025-50.628,1.682
		c-8.371-16.255-3.696-33.534-3.934-50.422c-0.563-9.847-0.883-19.712-0.854-29.586c0.028-10.241-5.136-15.006-15.228-15.115
		c-6.988-0.076-13.986-0.004-20.962-0.742c-6.427-0.678-11.508-3.705-12.087-10.265c-1.295-14.672-3.274-29.491,1.846-43.955
		c0.788-1.422,1.875-2.533,3.268-3.356c16.588-3.597,33.174-7.322,49.019,2.646c16.433,0.179,32.868,0.354,49.301,0.532
		c-0.002,15.519-0.002,31.032-0.002,49.544c17.913,0,33.73,0,49.551,0.004C899.261,287.234,899.418,319.996,899.58,352.761z"/>
	<path fill="#E84A24" d="M57.657,403.156c32.865-0.143,65.729-0.286,98.593-0.431c0.609,0.321,1.22,0.64,1.833,0.957
		c5.161,5.402,3.524,12.282,4.049,18.688c0.559,6.827-1.328,14.018,3.45,21.016c12.461,7.185,28.205-1.097,41.13,6.65
		c1.176,1.075,2.031,2.333,2.594,3.818c4.104,13.76,2.537,27.732,1.514,41.632c-0.585,7.942-5.952,11.165-13.409,11.663
		c-13.563,0.901-27.116,0.727-40.665-0.155c-11.807,0.721-23.62,0.939-35.445,0.499c-5.388-0.202-10.641-0.7-14.31-5.415
		c-16.589-0.072-33.176-0.146-49.762-0.222C57.373,468.958,57.514,436.059,57.657,403.156z"/>
	<path fill="#BD3D26" d="M800.252,799.215c-16.431-0.174-32.86-0.346-49.293-0.519c-7.715-5.641-5.751-14.081-5.871-21.655
		c-0.506-32.164-0.342-32.215,31.478-33.457c14.432-0.566,17.301-3.439,17.908-17.624c0.35-8.197-0.862-16.568,2.5-24.449
		c0.525-1.371,1.319-2.57,2.361-3.599c7.006-4.411,14.907-3.473,22.618-3.808c6.041-0.262,12.333,0.969,18.912-3.272
		c7.699-11.991-0.847-27.775,6.591-40.634c0.897-1.283,2.038-2.24,3.443-2.917c16.348-2.812,32.774-7.086,48.34,2.896
		c0,0,0.546,0.534,0.547,0.535c-0.227,32.811-0.451,65.618-0.68,98.425c-15.521-0.005-31.035-0.005-49.549-0.005
		c0,17.913,0,33.733-0.002,49.55C833.12,798.858,816.687,799.036,800.252,799.215z"/>
	<path fill="#F58E38" d="M750.667,105.622c0.166,16.349,0.329,32.697,0.493,49.045c-0.455,0.716-0.913,1.435-1.366,2.151
		c-14.966,7.082-30.468,4.062-45.852,2.242c-2.885-0.341-5.76-2.743-6.15-5.529c-2.237-16.014-6.617-32.268,3.157-47.507l0.673-0.93
		C717.972,105.27,734.32,105.448,750.667,105.622z"/>
	<path fill="#F58E38" d="M800.257,204.388c-16.466,0.044-32.936,0.085-49.399,0.125c-8.069-10.351-8.321-37.429-0.46-49.071
		l0.763-0.775c16.352,0.168,32.703,0.334,49.056,0.503C800.229,171.577,800.241,187.983,800.257,204.388z"/>
	<path fill="#FECB55" d="M750.397,155.442c0.151,16.357,0.306,32.714,0.46,49.071l0.09,0.075c-4.032,5.124-9.802,5.65-15.621,5.652
		c-77.285,0.01-154.577,1.036-231.862-0.514c-12.576,0.78-25.162,1.008-37.746,0.418c-4.804-0.225-9.869-0.01-13.666-3.941
		c-5.674-17.104-8.193-34.143,1.2-50.898l0.707-0.708c3.64-4.662,8.848-5.125,14.169-5.314c11.694-0.408,23.379-0.278,35.053,0.497
		c32.448-1.074,64.904-1.309,97.338,0.064c9.437-0.389,18.892-0.725,28.356-0.875c13.969-0.223,16.15-2.873,17.058-16.714
		c0.599-9.099-2.906-19.259,5.784-26.654l-0.275-0.712c16.505,0.375,33.007,0.753,49.508,1.133c0,15.508,0,31.014,0,49.42
		C718.767,155.442,734.581,155.442,750.397,155.442z"/>
	<path fill="#FECB55" d="M156.188,502.177c15.888,0,31.773,0,49.719,0c0-17.583,0-33.773,0-49.964
		c1.755-3.047,4.516-4.798,7.893-4.964c14.063-0.688,28.224-2.984,42.004,2.058c7.133,7.934,5.124,17.799,5.464,27.091
		c0.613,16.688,2.967,19.344,19.714,19.43c32.575,0.168,65.152,0.183,97.729-0.006c16.518-0.096,18.907-2.817,19.439-19.697
		c0.282-8.948-1.287-18.303,4.85-26.216c16.483-6.746,33.575-2.589,50.419-2.866c32.857-1.06,65.713-1.251,98.563,0.057
		c53.37-1.674,106.76-0.327,160.142-0.759c4.515-0.036,9.035,0.054,13.553-0.055c15.744-0.377,18.683-3.297,19.249-18.734
		c0.302-8.15-0.818-16.495,3.04-24.219c0.797-1.437,1.896-2.561,3.307-3.396c4.854-2.589,10.147-2.966,15.479-3.016
		c22.058-0.218,44.117-0.278,66.175,0.036c6.095,0.086,12.432-0.133,16.763,5.514c0,15.868,0,31.735,0,49.387
		c17.153,0,32.098,0,49.856,0c0,34.358,0,66.95,0,99.538l0.007-0.006c-5.773,7.243-14.011,5.591-21.606,5.771
		c-20.939,0.492-21.806,1.302-22.136,22.616c-0.116,7.332,0.526,14.81-3.443,21.568c-0.935,1.248-2.104,2.178-3.523,2.817
		c-6.652,2.974-13.736,2.578-20.729,2.608c-33.427,0.136-66.854-0.104-100.281,0.124c-17.027,0.117-20.027,3.28-20.573,20.347
		c-0.9,28.15-1.667,28.992-29.804,29.079c-35.489,0.111-70.982,0.219-106.472-0.108c-6.831-0.063-14.206,1.247-20.02-4.22
		c-6.437-16.849-5.807-33.82-0.828-50.836c5.051-6.314,12.315-5.914,19.259-6.036c19.796-0.352,39.601,0.15,59.396-0.251
		c14.197-0.291,17.151-3.919,17.004-19.502c-0.14-14.479-3.051-17.676-17.207-18.021c-25.147-0.619-50.319,0.818-75.45-0.926
		c-9.448,0.74-18.92,0.668-28.383,0.958c-12.283,0.38-14.836,3.284-15.698,15.587c-0.734,10.446,2.31,21.608-5.421,30.866
		c-3.567,2.582-7.774,2.65-11.834,2.672c-45.157,0.231-90.315,1.114-135.449-0.457c-9.406,0.339-18.823,0.709-28.259,0.855
		c-14.212,0.225-16.631,3.056-17.271,17.698c-0.42,9.665,1.79,19.858-4.986,28.457c-1.97,1.701-4.324,2.454-6.836,2.562
		c-28.472,1.23-56.947,1.206-85.416,0.031c-8.462-0.351-12.391-5.467-13.084-13.607c-0.528-6.184-0.34-12.384-0.71-18.563
		c-0.75-12.49-4.185-16.141-16.708-16.487c-19.396-0.534-38.806,0.027-58.209-0.287c-6.586-0.109-13.372,0.157-18.251-5.619
		l0.336-0.434c0.022-16.516,0.042-33.03,0.064-49.543c6.625-7.878,15.813-5.245,24.108-5.572
		c16.938-0.659,18.674-2.421,19.374-19.351C150.843,517.92,148.048,508.68,156.188,502.177z"/>
	<path fill="#FFEEC0" d="M849.689,402.471c-33.041,0.067-66.084,0.136-99.125,0.201c-9.965-15.699-5.78-32.194-2.727-48.628
		c0.77-1.479,1.859-2.656,3.267-3.538c16.657-4.068,33.269-6.976,49.327,2.243c16.461,0.251,32.921,0.501,49.385,0.752
		C849.775,369.823,849.732,386.146,849.689,402.471z"/>
	<path fill="#E84A24" d="M899.239,650.178c-16.45,0.082-32.9,0.167-49.351,0.248c-8.302-10.949-8.227-38.368,0.139-49.438
		l-0.119-0.164c11.158-8.122,38.036-8.219,49.345-0.179c0,0,0.535,0.518,0.538,0.518
		C899.611,617.502,899.426,633.842,899.239,650.178z"/>
	<path fill="#F89638" d="M899.253,600.645c-16.447,0.062-32.896,0.121-49.345,0.179c0-15.513,0-31.023,0-49.434
		c17.386,0,33.515,0,49.645,0C899.451,567.808,899.354,584.228,899.253,600.645z"/>
	<path fill="#E84A24" d="M800.395,699.922c0,15.547,0,31.094,0,49.014c-16.514,0-31.758,0-49.436,0c0,18.13,0,33.946,0,49.761
		c-32.403,0-64.803,0-98.758,0c0,17.19,0,32.229,0,50.056c-67.197,0-132.848,0-198.495,0.002
		c-16.622-0.128-33.245-0.251-49.867-0.378c-6.023-8.3-7.991-40.786-2.977-48.653c3.633-5.71,9.498-6.075,15.292-6.228
		c28.032-0.736,56.073-0.173,84.108-0.34c10.307-0.063,20.614,0.11,30.919-0.167c9.999-0.271,15.181-5.24,15.426-15.331
		c0.131-5.355,0.078-10.722,0.428-16.072c0.917-14.028,3.828-17.299,18.194-17.636c35.449-0.837,70.915-0.154,106.371-0.363
		c21.091-0.12,23.292-2.314,23.822-23.344c0.093-3.711,0.299-7.413,0.461-11.123c0.426-9.543,5.506-14.255,14.862-14.559
		c25.968-0.853,51.94-0.741,77.907-0.066C793.221,694.61,797.782,695.302,800.395,699.922z"/>
	<path fill="#FCBE80" d="M255.493,452.336c-16.528-0.041-33.056-0.082-49.585-0.123l-0.248,0.248
		c-7.646-6.776-5.353-15.951-5.644-24.372c-0.593-17.091-2.435-18.894-19.45-19.564c-8.359-0.327-17.645,2.296-24.183-5.864
		l-0.133,0.067c0-32.371,0-64.743,0-99c17.039,0,32.398,0,49.168,0c0-16.904,0-31.946,0-49.641c17.6,0,33.809,0,50.018,0
		c5.656,4.323,5.666,10.6,5.758,16.811c0.286,19.759-0.17,39.522,0.235,59.276c0.28,13.596,3.405,16.728,16.972,16.959
		c18.109,0.307,36.233,0.405,54.337-0.052c12.198-0.311,15.373-3.475,15.667-15.669c0.446-18.519,0.432-37.051,0.008-55.571
		c-0.278-12.096-3.548-15.363-15.679-15.687c-20.164-0.538-40.339,0.02-60.512-0.287c-6.208-0.096-12.487-0.102-16.808-5.758
		c0-15.893,0-31.783,0-49.516c17.014,0,32.348,0,49.399,0c0-17.713,0-33.583,0-49.454c33.149,0.03,66.3,0.059,99.453,0.088
		c7.893,6.65,5.253,15.857,5.582,24.177c0.672,16.883,2.451,18.657,19.519,19.303c8.326,0.316,17.54-2.247,24.118,5.737
		c16.591,0.081,33.182,0.162,49.771,0.245c7.534,6.266,5.385,15.049,5.728,23.038c0.733,17.168,3.293,19.908,20.429,20.406
		c28.249,0.823,29.006,1.545,29.15,29.58c0.095,18.945,0.11,37.892-0.036,56.838c-0.049,6.596-0.069,13.222-3.383,19.25
		c-5.597,6.825-13.534,4.908-20.667,5.117c-24.935,0.734-24.938,0.576-25.504,25.985c-0.021,0.821-0.024,1.645-0.055,2.467
		c-0.612,18.153-2.933,20.479-21.063,21.121c-0.823,0.029-1.644,0.037-2.468,0.058c-25.267,0.592-25.241,0.592-25.982,25.471
		c-0.194,6.524,0.455,13.368-5.66,18.062c-16.604,0.084-33.204,0.169-49.809,0.255c-3.962,5.291-9.807,5.578-15.597,5.633
		c-39.082,0.366-78.165,0.366-117.25,0C265.302,457.914,259.456,457.627,255.493,452.336z"/>
	<path fill="#E84A24" d="M602.182,154.798c-32.948-0.055-65.899-0.11-98.85-0.162c-8.634-10.879-8.634-37.987,0-48.869
		c16.37-0.211,32.737-0.42,49.109-0.634c16.581,0.086,33.166,0.173,49.748,0.258l0.08,0.083
		C610.573,116.728,610.529,143.785,602.182,154.798z"/>
	<path fill="#FFEEC0" d="M453.485,204.443c-15.811,0-31.62,0-49.219,0c0-17.633,0-33.427,0-49.219
		c16.329,0.028,32.659,0.053,48.985,0.081C453.333,171.684,453.409,188.064,453.485,204.443z"/>
	<path fill="#F47638" d="M503.332,105.767c0,16.292,0,32.579,0,48.869c-16.457-0.013-32.915-0.024-49.373-0.036
		c0-15.525,0-31.053,0-48.833C470.962,105.767,487.146,105.767,503.332,105.767z"/>
	<path fill="#FFEEC0" d="M602.182,154.798c0.031-16.44,0.059-32.882,0.088-49.324c16.48,0.043,32.967,0.084,49.447,0.127
		c0,15.592,0,31.185,0,49.197C634.617,154.798,618.4,154.798,602.182,154.798z"/>
	<path fill="#FFEEC0" d="M156.188,502.177c0,15.51,0,31.021,0,48.933c-16.923,0-33.047,0-49.165,0
		c-0.011-16.344-0.022-32.687-0.032-49.03C123.39,502.113,139.787,502.144,156.188,502.177z"/>
	<path fill="#E84A24" d="M106.623,601.086c32.415,0,64.829,0,98.658,0c0,16.287,0,31.703,0,49.063c34.063,0,66.738,0,99.415,0
		c6.846-7.47,15.979-5.263,24.404-5.548c17.113-0.57,18.862-2.396,19.592-19.37c0.357-8.293-2.549-17.658,5.999-23.997
		c49.397-0.211,98.794-0.42,148.189-0.631c15.818-9.003,32.04-7.022,48.384-1.78c0.447,0.667,0.895,1.335,1.343,2.004
		c0.039,16.523,0.079,33.045,0.116,49.569c-3.744,6.892-10.57,5.587-16.492,5.752c-19.389,0.536-38.795-0.031-58.19,0.31
		c-14.992,0.262-17.936,3.359-18.494,18.348c-1.151,30.991-1.151,31.022-32.638,31.088c-30.953,0.064-61.911-0.058-92.867,0.048
		c-20.677,0.069-22.477,2.161-23.34,22.479c-0.315,7.378,2.608,16.102-6.093,21.229c-32.067,0-64.137,0-98.208,0
		c0-16.811,0-31.819,0-49.238c-17.237,0-32.534,0-49.804,0c0-17.396,0-32.386,0-50.229c-17.823,0-33.701,0-49.582-0.001
		C106.887,633.814,106.756,617.449,106.623,601.086z"/>
	<path fill="#F47638" d="M304.609,749.65c0-15.611,0-31.216,0-49.018c49.847,0,98.151,0,148.684,0c0-17.45,0-32.773,0-50.234
		c34.623,0,67.025,0,99.431-0.002c48.861,0,97.727,0,148.195,0c0-16.802,0-31.83,0-49.409c50.758,0,99.931,0,149.108,0
		c-0.049,16.48-0.094,32.96-0.139,49.438l0.058-0.057c-6.141,7.804-14.951,5.646-22.955,5.892
		c-18.73,0.575-20.186,2.033-20.765,20.763c-0.245,8.002,1.914,16.814-5.89,22.954c0,0,0.057-0.056,0.058-0.056
		c-32.087,0-64.175,0-98.506,0c0,16.574,0,31.897,0,49.368c-50.49,0-98.791,0-148.856,0c0,17.144,0,32.154,0,49.327
		c-50.046,0-98.347,0-149.193,0c0,17.984,0,33.871,0,49.76c-15.615-0.001-31.23-0.001-48.826-0.001c0-16.28,0-31.661,0-49.005
		c-17.306,0-32.682,0-50.403,0C304.609,781.497,304.609,765.571,304.609,749.65z"/>
	<path fill="#F47638" d="M552.406,352.89c0-32.301,0-64.604,0-98.759c-16.771,0-32.101,0-49.149,0c0-17.706,0-33.576,0-49.444
		c82.566-0.032,165.129-0.065,247.69-0.098c0,15.863,0,31.727,0,49.433c16.994,0,32.305,0,49.214,0c0,17.702,0,33.546,0,49.393
		c-5.478,7.685-13.779,5.798-21.283,6.008c-20.717,0.577-21.717,1.522-22.171,22.543c-0.162,7.615,1.116,15.705-5.712,21.599
		l0.271-0.271c-15.662,10.176-32.403,6.107-48.8,3.086c-4.63-0.852-5.972-6.323-6.456-11.087c-0.757-7.401-0.376-14.842-0.88-22.247
		c-0.569-8.31-4.953-12.997-13.329-13.226c-19.789-0.545-39.587-0.434-59.382-0.063c-8.945,0.169-13.584,4.93-14.062,13.85
		c-0.397,7.411-0.073,14.85-0.887,22.248c-0.588,5.327-2.686,10.377-8.009,11.354c-14.625,2.687-29.41,3.462-44.001-0.604
		C553.904,356.172,553.048,354.446,552.406,352.89z"/>
	<path fill="#E84A24" d="M750.995,353.563c0-15.902,0-31.806,0-50.149c17.472,0,33.319,0,49.17,0
		c0.087,16.444,0.175,32.889,0.267,49.335C783.953,353.021,767.474,353.293,750.995,353.563z"/>
	<path fill="#F89638" d="M156.383,402.66c15.581,0,31.163,0,49.276,0c0,17.375,0,33.588,0,49.801c-15.557,0-31.112,0-49.276,0
		C156.383,435.032,156.383,418.846,156.383,402.66z"/>
	<path fill="#E84A24" d="M800.337,699.978c0-15.848,0-31.692,0-49.608c17.917,0,33.762,0,49.609,0c0,15.833,0,31.669,0,49.608
		C832.005,699.978,816.17,699.978,800.337,699.978z"/>
	<path fill="#E84A24" d="M552.406,352.89c15.924,0,31.847,0,49.522,0c0-16.696,0-31.707,0-47.974c33.552,0,65.313,0,98.895,0
		c0,15.45,0,30.472,0,48.375c17.947,0,34.196,0,50.441,0.002c-0.234,16.458-0.468,32.918-0.703,49.379
		c0.003,0,0.263-0.179,0.263-0.179c-4.888,6.69-12.225,5.98-19.118,6.018c-47.69,0.259-95.382,0.075-143.072,0.124
		c-4.523,0.006-9.052-0.127-13.566,0.139c-12.387,0.731-15.38,4.113-16.461,16.71c-0.781,9.082,2.688,19.244-5.971,26.594
		c-32.964,0.002-65.926,0.004-98.89,0.006c0-15.939,0-31.876,0-49.082c16.581,0,32.027,0,48.744,0c0-16.677,0-32.116,0-50.111
		C519.945,352.89,536.175,352.89,552.406,352.89z"/>
	<path fill="#FFEEC0" d="M552.636,452.077c0-15.976,0-31.954,0-49.584c66.726,0,132.458,0,198.188,0c0,15.917,0,31.835,0,49.584
		C683.749,452.077,618.194,452.077,552.636,452.077z"/>
	<path fill="#FFEEC0" d="M255.493,452.336c49.482-0.002,98.963-0.002,148.444-0.002c0,15.611,0,31.224,0,48.146
		c-49.489,0-98.077,0-148.444,0C255.493,484.166,255.493,468.249,255.493,452.336z"/>
	<path fill="#E84A24" d="M552.881,551.688c32.377,0,64.755,0,98.004,0c0,16.376,0,31.771,0,49.139c-32.861,0-65.567,0-98.277,0
		l0.106,0.106C544.239,589.552,544.332,562.495,552.881,551.688z"/>
	<path fill="#F47638" d="M354.691,601.234c0,15.505,0,31.009,0,48.917c-17.674,0-33.836,0-49.995-0.002c0-15.543,0-31.087,0-48.915
		C322.303,601.234,338.498,601.234,354.691,601.234z"/>
	<path fill="#F47638" d="M552.881,551.688c-0.058,16.414-0.112,32.828-0.167,49.245c-16.611-0.11-33.223-0.22-49.833-0.33
		c0-15.542,0-31.087,0-48.915C520.488,551.688,536.685,551.688,552.881,551.688z"/>
	<path fill="#FFFFFF" d="M255.414,254.108c32.413,0,64.827,0,98.147,0c0,33.245,0,65.102,0,98.012c-32.122,0-63.984,0-98.125,0
		c0-32.611,0-65.322,0-98.034L255.414,254.108z"/>
</g>
</svg>
